<svg xmlns="http://www.w3.org/2000/svg" width="516" height="407"><defs><linearGradient id="a" x1="-745" x2="-745" y1="-300" y2="-300" gradientUnits="userSpaceOnUse"><stop offset="0" stop-color="#31d1d6"/><stop offset=".37" stop-color="#32ced8"/><stop offset=".62" stop-color="#35c5de"/><stop offset=".82" stop-color="#3cb6ea"/><stop offset="1" stop-color="#45a3fa"/></linearGradient><linearGradient id="b" x1="-745" x2="-745" y1="-300" y2="-300" gradientUnits="userSpaceOnUse"><stop offset="0" stop-color="#31d1d6"/><stop offset=".37" stop-color="#32ced8"/><stop offset=".62" stop-color="#35c5de"/><stop offset=".82" stop-color="#3cb6ea"/><stop offset="1" stop-color="#45a3fa"/></linearGradient><linearGradient id="c" x1="-745" x2="-745" y1="-300" y2="-300" gradientUnits="userSpaceOnUse"><stop offset="0" stop-color="#f9e6d9"/><stop offset=".12" stop-color="#fbf1ea"/><stop offset=".27" stop-color="#fdf9f6"/><stop offset=".48" stop-color="#fefdfd"/><stop offset="1" stop-color="#eceff9"/></linearGradient><linearGradient id="d" x1="-745" x2="-745" y1="-300" y2="-300" gradientUnits="userSpaceOnUse"><stop offset="0" stop-color="#f9e6d9"/><stop offset=".12" stop-color="#fbf1ea"/><stop offset=".27" stop-color="#fdf9f6"/><stop offset=".48" stop-color="#fefdfd"/><stop offset="1" stop-color="#f2f3fc"/></linearGradient><linearGradient id="e" x1="-745" x2="-745" y1="-300" y2="-300" gradientUnits="userSpaceOnUse"><stop offset="0" stop-color="#31d1d6"/><stop offset=".37" stop-color="#32ced8"/><stop offset=".62" stop-color="#35c5de"/><stop offset=".82" stop-color="#3cb6ea"/><stop offset="1" stop-color="#45a3fa"/></linearGradient><linearGradient id="f" x1="-745" x2="-745" y1="-300" y2="-300" gradientUnits="userSpaceOnUse"><stop offset="0" stop-color="#f9e6d9"/><stop offset=".12" stop-color="#fbf1ea"/><stop offset=".27" stop-color="#fdf9f6"/><stop offset=".48" stop-color="#fefdfd"/><stop offset="1" stop-color="#fff"/></linearGradient><linearGradient id="g" x1="-745" x2="-745" y1="-300" y2="-300" gradientUnits="userSpaceOnUse"><stop offset="0" stop-color="#31d1d6"/><stop offset=".37" stop-color="#32ced8"/><stop offset=".62" stop-color="#35c5de"/><stop offset=".82" stop-color="#3cb6ea"/><stop offset="1" stop-color="#45a3fa"/></linearGradient><linearGradient id="h" x1="-745" x2="-745" y1="-300" y2="-300" gradientUnits="userSpaceOnUse"><stop offset="0" stop-color="#f9e6d9"/><stop offset=".12" stop-color="#fbf1ea"/><stop offset=".27" stop-color="#fdf9f6"/><stop offset=".48" stop-color="#fefdfd"/><stop offset="1" stop-color="#fff"/></linearGradient><linearGradient id="i" x1="-745" x2="-745" y1="-300" y2="-300" gradientUnits="userSpaceOnUse"><stop offset="0" stop-color="#31d1d6"/><stop offset=".37" stop-color="#32ced8"/><stop offset=".62" stop-color="#35c5de"/><stop offset=".82" stop-color="#3cb6ea"/><stop offset="1" stop-color="#45a3fa"/></linearGradient><linearGradient id="j" x1="-745" x2="-745" y1="-300" y2="-300" gradientUnits="userSpaceOnUse"><stop offset="0" stop-color="#31d1d6"/><stop offset=".37" stop-color="#32ced8"/><stop offset=".62" stop-color="#35c5de"/><stop offset=".82" stop-color="#3cb6ea"/><stop offset="1" stop-color="#45a3fa"/></linearGradient><linearGradient id="k" x1="-745" x2="-745" y1="-300" y2="-300" gradientUnits="userSpaceOnUse"><stop offset="0" stop-color="#51adc6"/><stop offset=".01" stop-color="#54aec4"/><stop offset=".07" stop-color="#74beb4"/><stop offset=".13" stop-color="#8ecca7"/><stop offset=".21" stop-color="#a4d79c"/><stop offset=".3" stop-color="#b5e094"/><stop offset=".41" stop-color="#c1e68e"/><stop offset=".57" stop-color="#c8ea8a"/><stop offset="1" stop-color="#caeb8a"/></linearGradient><linearGradient id="l" x1="-745" x2="-745" y1="-300" y2="-300" gradientUnits="userSpaceOnUse"><stop offset="0" stop-color="#8aebd6"/><stop offset=".46" stop-color="#88e9d6"/><stop offset=".63" stop-color="#84e2d9"/><stop offset=".75" stop-color="#7cd6de"/><stop offset=".84" stop-color="#71c5e5"/><stop offset=".92" stop-color="#63afee"/><stop offset=".99" stop-color="#5295f9"/><stop offset="1" stop-color="#5193fa"/></linearGradient><linearGradient id="m" x1="-745" x2="-745" y1="-300" y2="-300" gradientUnits="userSpaceOnUse"><stop offset="0" stop-color="#31d1d6"/><stop offset=".37" stop-color="#32ced8"/><stop offset=".62" stop-color="#35c5de"/><stop offset=".82" stop-color="#3cb6ea"/><stop offset="1" stop-color="#45a3fa"/></linearGradient><linearGradient id="n" x1="-745" x2="-745" y1="-300" y2="-300" gradientUnits="userSpaceOnUse"><stop offset="0" stop-color="#8aebd6"/><stop offset=".46" stop-color="#88e9d6"/><stop offset=".63" stop-color="#84e2d9"/><stop offset=".75" stop-color="#7cd6de"/><stop offset=".84" stop-color="#71c5e5"/><stop offset=".92" stop-color="#63afee"/><stop offset=".99" stop-color="#5295f9"/><stop offset="1" stop-color="#5193fa"/></linearGradient><linearGradient id="o" x1="-745" x2="-745" y1="-300" y2="-300" gradientUnits="userSpaceOnUse"><stop offset="0" stop-color="#31d1d6"/><stop offset=".37" stop-color="#32ced8"/><stop offset=".62" stop-color="#35c5de"/><stop offset=".82" stop-color="#3cb6ea"/><stop offset="1" stop-color="#45a3fa"/></linearGradient><linearGradient id="p" x1="-745" x2="-745" y1="-300" y2="-300" gradientUnits="userSpaceOnUse"><stop offset="0" stop-color="#f7be86"/><stop offset=".33" stop-color="#f7bc83"/><stop offset=".54" stop-color="#f7b67a"/><stop offset=".73" stop-color="#f7ac6b"/><stop offset=".89" stop-color="#f79e56"/><stop offset="1" stop-color="#f79244"/></linearGradient><linearGradient id="q" x1="-745" x2="-745" y1="-300" y2="-300" gradientUnits="userSpaceOnUse"><stop offset="0" stop-color="#7b6ed6"/><stop offset=".48" stop-color="#796cd4"/><stop offset=".65" stop-color="#7268d0"/><stop offset=".78" stop-color="#6660c8"/><stop offset=".88" stop-color="#5555be"/><stop offset=".96" stop-color="#3f46b0"/><stop offset="1" stop-color="#333ea8"/></linearGradient><linearGradient id="r" x1="-745" x2="-745" y1="-300" y2="-300" gradientUnits="userSpaceOnUse"><stop offset="0" stop-color="#7b6ed6"/><stop offset=".48" stop-color="#796cd4"/><stop offset=".65" stop-color="#7268d0"/><stop offset=".78" stop-color="#6660c8"/><stop offset=".88" stop-color="#5555be"/><stop offset=".96" stop-color="#3f46b0"/><stop offset="1" stop-color="#333ea8"/></linearGradient><linearGradient id="s" x1="-745" x2="-745" y1="-300" y2="-300" gradientUnits="userSpaceOnUse"><stop offset="0" stop-color="#7b6ed6"/><stop offset=".48" stop-color="#796cd4"/><stop offset=".65" stop-color="#7268d0"/><stop offset=".78" stop-color="#6660c8"/><stop offset=".88" stop-color="#5555be"/><stop offset=".96" stop-color="#3f46b0"/><stop offset="1" stop-color="#333ea8"/></linearGradient><linearGradient id="t" x1="-745" x2="-745" y1="-300" y2="-300" gradientUnits="userSpaceOnUse"><stop offset="0" stop-color="#7b6ed6"/><stop offset=".48" stop-color="#796cd4"/><stop offset=".65" stop-color="#7268d0"/><stop offset=".78" stop-color="#6660c8"/><stop offset=".88" stop-color="#5555be"/><stop offset=".96" stop-color="#3f46b0"/><stop offset="1" stop-color="#333ea8"/></linearGradient><linearGradient id="u" x1="-745" x2="-745" y1="-300" y2="-300" gradientUnits="userSpaceOnUse"><stop offset="0" stop-color="#f7be86"/><stop offset=".33" stop-color="#f7bc83"/><stop offset=".54" stop-color="#f7b67a"/><stop offset=".73" stop-color="#f7ac6b"/><stop offset=".89" stop-color="#f79e56"/><stop offset="1" stop-color="#f79244"/></linearGradient><linearGradient id="v" x1="-745" x2="-745" y1="-300" y2="-300" gradientUnits="userSpaceOnUse"><stop offset="0" stop-color="#3c0887"/><stop offset=".32" stop-color="#3e0987"/><stop offset=".53" stop-color="#470d87"/><stop offset=".71" stop-color="#561488"/><stop offset=".87" stop-color="#6b1f89"/><stop offset="1" stop-color="#822a8a"/></linearGradient><linearGradient id="w" x1="-745" x2="-745" y1="-300" y2="-300" gradientUnits="userSpaceOnUse"><stop offset="0" stop-color="#f7be86"/><stop offset=".33" stop-color="#f7bc83"/><stop offset=".54" stop-color="#f7b67a"/><stop offset=".73" stop-color="#f7ac6b"/><stop offset=".89" stop-color="#f79e56"/><stop offset="1" stop-color="#f79244"/></linearGradient><linearGradient id="x" x1="-745" x2="-745" y1="-300" y2="-300" gradientUnits="userSpaceOnUse"><stop offset="0" stop-color="#8aebd6"/><stop offset=".46" stop-color="#88e9d6"/><stop offset=".63" stop-color="#84e2d9"/><stop offset=".75" stop-color="#7cd6de"/><stop offset=".84" stop-color="#71c5e5"/><stop offset=".92" stop-color="#63afee"/><stop offset=".99" stop-color="#5295f9"/><stop offset="1" stop-color="#5193fa"/></linearGradient><linearGradient id="y" x1="442.31" x2="442.31" y1="404.25" y2="338.72" gradientUnits="userSpaceOnUse"><stop offset="0" stop-color="#8aebd6"/><stop offset=".46" stop-color="#88e9d6"/><stop offset=".63" stop-color="#84e2d9"/><stop offset=".75" stop-color="#7cd6de"/><stop offset=".84" stop-color="#71c5e5"/><stop offset=".92" stop-color="#63afee"/><stop offset=".99" stop-color="#5295f9"/><stop offset="1" stop-color="#5193fa"/></linearGradient><linearGradient id="z" x1="119.31" x2="119.31" y1="404.27" y2="338.71" gradientUnits="userSpaceOnUse"><stop offset="0" stop-color="#8aebd6"/><stop offset=".46" stop-color="#88e9d6"/><stop offset=".63" stop-color="#84e2d9"/><stop offset=".75" stop-color="#7cd6de"/><stop offset=".84" stop-color="#71c5e5"/><stop offset=".92" stop-color="#63afee"/><stop offset=".99" stop-color="#5295f9"/><stop offset="1" stop-color="#5193fa"/></linearGradient><linearGradient id="A" x1="-745" x2="-745" y1="-300" y2="-300" gradientUnits="userSpaceOnUse"><stop offset="0" stop-color="#31d1d6"/><stop offset=".37" stop-color="#32ced8"/><stop offset=".62" stop-color="#35c5de"/><stop offset=".82" stop-color="#3cb6ea"/><stop offset="1" stop-color="#45a3fa"/></linearGradient><linearGradient id="B" x1="-745" x2="-745" y1="-300" y2="-300" gradientUnits="userSpaceOnUse"><stop offset="0" stop-color="#f9e6d9"/><stop offset=".12" stop-color="#fbf1ea"/><stop offset=".27" stop-color="#fdf9f6"/><stop offset=".48" stop-color="#fefdfd"/><stop offset="1" stop-color="#fff"/></linearGradient><linearGradient id="C" x1="-745" x2="-745" y1="-300" y2="-300" gradientUnits="userSpaceOnUse"><stop offset="0" stop-color="#7b6ed6"/><stop offset=".48" stop-color="#796cd4"/><stop offset=".65" stop-color="#7268d0"/><stop offset=".78" stop-color="#6660c8"/><stop offset=".88" stop-color="#5555be"/><stop offset=".96" stop-color="#3f46b0"/><stop offset="1" stop-color="#333ea8"/></linearGradient></defs><path fill="url(#a)" d="M65.057 330.598H13.573c-13.776-14.311-17.46-37.116-9.232-55.196 7.844-17.235 24.685-28.62 34.89-44.571 21.776-34.041 11.25-84.755 40.843-112.274 14.792-13.755 36.063-17.734 56.2-19.342 20.134-1.608 40.945-1.564 59.566-9.391 22.963-9.651 40.273-30.381 63.926-38.192 26.558-8.771 58.33 2.174 73.85 25.442 9.711 14.559 13.377 32.85 24.861 46.057 18.571 21.354 51.289 23.01 74.45 39.272 15.886 11.153 26.61 29.367 28.659 48.669 2.471 23.305-6.377 49.776 7.597 68.59 6.815 9.175 17.862 14.347 25.205 23.105 7.316 8.726 9.376 16.678 7.073 27.83z" opacity=".37"/><path fill="url(#b)" d="M78.214 330.598H26.731c-13.777-14.311-17.462-37.116-9.233-55.196 7.844-17.235 24.686-28.62 34.89-44.571 21.776-34.041 11.251-84.755 40.843-112.274 14.792-13.755 36.063-17.734 56.2-19.342 20.135-1.608 40.945-1.564 59.567-9.391 22.963-9.651 40.273-30.381 63.925-38.192 26.56-8.771 58.33 2.174 73.85 25.442 9.712 14.559 13.376 32.85 24.861 46.057 18.572 21.354 51.288 23.01 74.45 39.272 15.885 11.153 26.611 29.367 28.658 48.669 2.472 23.305-6.375 49.776 7.598 68.59 6.814 9.175 17.863 14.347 25.204 23.105 7.316 8.726 9.376 16.678 7.074 27.83z" opacity=".37"/><path fill="url(#c)" d="M196.703 154.307l-2.12.07H3.123l-.46.06c-1.9-12.7 8.04-25.6 20.55-29.02 10.94-2.99 23.74-.33 32.9-7.02 8.21-5.99 10.25-17.19 15.62-25.82a36.56 36.56 0 0113.67-12.84c6.98-3.75 15.69-5.06 22.85-1.67 12.68 6.02 15.11 22.82 23.59 34.01 1.89 2.5 4.27 4.83 7.3 5.66 2.79.77 5.75.17 8.61-.34 9.37-1.65 20.61-1.5 26.44 6.02 2.74 3.54 3.72 8.08 5.24 12.28 1.52 4.21 4.01 8.53 8.22 10.04 2.02.71 4.31.73 6.09 1.92 2.14 1.43 2.83 3.98 2.96 6.65z"/><path fill="url(#d)" d="M504.668 178.484h-223.27c-1.78-2.34-2-5.96-.73-8.74 1.65-3.65 5.09-6.13 8.52-8.19 3.43-2.07 7.08-3.97 9.65-7.04 4.93-5.89 4.64-14.34 5.73-21.94 1.28-9.02 5.06-17.95 11.88-24 2.7-2.4 5.83-4.3 9.11-5.82 9.35-4.35 20.93-5.44 29.67.04 8.36 5.24 12.46 15.21 19.75 21.86 1.72 1.58 3.69 2.99 5.97 3.52 6.53 1.5 12.08-4.42 16.98-8.99 6.96-6.49 16.26-11.34 25.7-10.13 11.1 1.44 19.68 10.96 23.89 21.33 1.76 4.32 3.1 9.1 6.6 12.17 8.98 7.87 24.14-.95 34.61 4.77 3.93 2.15 6.56 6.06 8.66 10.02 3.5 6.61 5.97 13.77 7.28 21.14z"/><path fill="url(#e)" d="M113.275 272.925l16.162-24.044c2.858-4.455 5.42-9.243 7.682-14.366h1.097c-.134.267-.317 3.11-.549 8.53-.234 5.422-.349 9.727-.349 12.92v16.96zm79.014 0h-16.063v-88.193h-36.414l-60.658 88.692v28.932h58.164v28.233h38.908v-28.233h16.063z"/><path fill="url(#f)" d="M102.65 272.934l16.161-24.044c2.858-4.455 5.42-9.244 7.682-14.366h1.097c-.134.266-.316 3.11-.549 8.53-.233 5.42-.349 9.727-.349 12.92v16.96zm79.013 0h-16.062V184.74h-36.415L68.53 273.43v28.933h58.163v28.234h38.91v-28.234h16.061z"/><path fill="url(#g)" d="M376.2 286.894l-13.17 2.54 9.4-22.18 1.9-4.49c1.96-4.92 3.56-10.11 4.81-15.57l1.08-.2c-.08.28.28 3.11 1.08 8.48.8 5.36 1.5 9.61 2.11 12.75l3.22 16.65zm69.99 16.44l-5.59-28.9-10.43 2.02-5.34 1.03-16.74-86.59-35.76 6.92-42.71 98.59 5.49 28.41 57.11-11.05 3.25 16.83h39.63l-4.68-24.21 5.34-1.03z"/><path fill="url(#h)" d="M372.43 267.254c.19 1.09.38 2.08.55 2.99l3.22 16.65-23.61 4.57 11.31-26.68c1.96-4.91 3.56-10.1 4.81-15.56l1.08-.21c-.08.29.28 3.12 1.08 8.48.57 3.82 1.09 7.08 1.56 9.76zm63.33 38.1l-5.59-28.89-15.77 3.05-16.75-86.59-25.32 4.89-10.43 2.02-42.71 98.6 5.49 28.4 10.43-2.02 46.68-9.02 2.86 14.8h39.63l-4.29-22.19 10.43-2.02z"/><path fill="url(#i)" d="M197.72 256.614l-23.755-.001-15.09-110.49s-21.804-23.82-46.835-28.28l23.84-2.57 53.73 1.46z"/><path fill="#111023" d="M103.967 195.873s-13.498 19.755-7.506 36.717l25.112-36.717-3.26-4.38zm69.998 60.74l-.809 5.1s-7.156 1.002-7.555 11.22h18.611l10.113-9.871.944-6.45z"/><path fill="url(#j)" d="M145.23 146.044l-29.77-1.11 4.838 45.589-20.178 7.23-11.63-56.3c-3.4-10.49 3.71-21.46 14.67-22.65l8.87-.96h.01c25.03 4.46 46.834 28.28 46.834 28.28z"/><path fill="url(#k)" d="M90.41 18.798v1.325l-1.614.207c-.415-.892-.857-1.605-1.298-1.992-2.155-1.858-3.652-3.318-5.194-2.426-1.163.677-1.073 3.859-.964 5.365l-4.39.559-38.897 4.932-.018-.072c2.524-.595 4.481-5.121 4.481-10.621 0-5.428-1.903-9.9-4.373-10.603l52.267 5.896v1.055z"/><path fill="url(#l)" d="M40.947 8.32a5.427 5.427 0 00-.298.497c-.559 1.08-.82 2.317-1.514 3.309a4.483 4.483 0 01-2.065 1.63c-.875.344-1.83.398-2.768.524-.622.082-1.262.208-1.83.469.297-5.193 2.344-9.232 4.86-9.368l.811.09c1.082.307 2.055 1.335 2.804 2.85z"/><path fill="url(#m)" d="M42.498 15.2c-.018.018-.027.036-.046.054-.64.857-.946 1.93-1.54 2.813a5.04 5.04 0 01-3.022 2.074c-1.127.252-2.344.117-3.372.63a3.307 3.307 0 00-1.262 1.182c-.523-1.686-.83-3.705-.83-5.878 0-.451.01-.893.045-1.326.57-.261 1.21-.387 1.831-.47.937-.125 1.893-.18 2.768-.522a4.483 4.483 0 002.065-1.631c.694-.992.955-2.228 1.514-3.31.09-.171.19-.333.298-.495.874 1.767 1.451 4.174 1.551 6.879z"/><path fill="url(#n)" d="M42.516 16.075c0 5.5-1.957 10.026-4.48 10.62a2.402 2.402 0 01-.569.073c-1.759 0-3.309-1.912-4.21-4.815.314-.496.738-.91 1.261-1.181 1.028-.514 2.245-.38 3.372-.631a5.04 5.04 0 003.021-2.074c.595-.883.901-1.956 1.541-2.813.02-.018.028-.036.046-.054.01.289.018.577.018.875z"/><path fill="#111023" d="M121.21 13.46h15.724c-1.64.658-3.039 1.406-3.67 2.002-.496.459-.279 1.298.334 2.37H121.21zm34.848 2.633v1.74h-8.52c-.821-1.894-1.435-3.49-1.642-4.373h10.162z"/><path fill="url(#o)" d="M121.21 17.832v.965h-30.8v-6.374h30.8v1.036z"/><path fill="url(#p)" d="M91.627 29.689l-6.78 5.157s-8.232-8.628-7.898-13.01l4.391-.56c-.109-1.505-.199-4.687.964-5.364 1.542-.892 3.04.568 5.194 2.426.441.387.883 1.1 1.298 1.992 1.587 3.399 2.831 9.359 2.831 9.359z"/><path fill="#5b2b89" d="M46.003 5.51c-.453-.991-1.918-.144-1.469.839 2.788 6.102 2.43 12.814-.91 18.618-.544.943.92 1.79 1.464.845 3.65-6.342 3.952-13.653.915-20.301z"/><path fill="url(#q)" d="M166.76 36.496v5.23l-6.257-5.915z"/><path fill="url(#r)" d="M166.76 41.726l6.302 5.95 6.014 5.68s13.776-9.647 19.124-9.728a6.07 6.07 0 011.09.072c4.716.668 7.601 6.122 6.772 11.352-.893 5.635-.73 11.874-6.159 12.884-5.427 1.019-29.339 6.816-29.339 6.816L144.39 39.246l3.084-2.155 6.87-4.805 1.39-.974 3.02 2.849 1.748 1.65z"/><path fill="url(#s)" d="M183.656 37.587L199.29 43.7a6.175 6.175 0 00-1.09-.072c-5.348.08-19.124 9.729-19.124 9.729l-6.014-5.68z"/><path fill="url(#t)" d="M199.903 67.936l-9.079 24.723-1.217 24.073s-1.064.189-2.913.45c-8.655 1.236-34.595 4.193-50.815-1.911l6.32-29.907-2.92-23.586-35.254 3.895L81.898 37.09l2.949-2.245 6.78-5.157 20.908 20.422 32.72-14.3c1.19.857 2.219 1.28 2.219 1.28l-3.085 2.155 26.175 35.506s23.91-5.797 29.338-6.816z"/><path fill="url(#u)" d="M154.344 32.286l-6.87 4.805s-1.028-.423-2.218-1.28c-1.55-1.11-3.38-2.94-3.607-5.518-.297-3.462-6.14-9.097-8.05-12.46-.614-1.073-.83-1.912-.334-2.372.63-.595 2.028-1.343 3.67-2.001 3.632-1.443 8.474-2.425 8.916-.18.01.054.027.117.045.18.207.883.82 2.479 1.641 4.373 2.488 5.806 6.807 14.453 6.807 14.453z"/><path fill="url(#v)" d="M190.824 92.659c-40.048-8.495-46.434-53.413-46.434-53.413l26.175 35.532 29.338-6.842z" opacity=".38"/><path fill="url(#w)" d="M183.431 15.759c.847-.234 1.704-.063 2.046 1.289.794 3.093-2.678 6.808-2.678 6.808l.857 13.73-10.594 10.09 4.147-11.865-10.45.685-6.257-.685-1.749-1.65s-1.217-11.387-1.217-18.068c0-1.542.063-2.831.225-3.67l.054-.325c7.322 1.236 17.483-1.622 17.483-1.622s1.424 13.867 3.372 14.11c1.947.234 2.552-7.538 2.552-7.538s1.11-.991 2.21-1.29z"/><path fill="#111023" d="M183.512 5.679l-.08 10.08c-1.1.298-2.21 1.289-2.21 1.289s-.605 7.772-2.552 7.538c-1.948-.243-3.371-14.11-3.371-14.11s-10.162 2.858-17.484 1.622v-.01c-2.299-.377-4.309-1.171-5.644-2.577-5.599-5.897-3.65-9.242 4.374-7.421 8.024 1.822 24.66-7.835 26.967 3.589z"/><path fill="#f79244" d="M177.21 35.81l-4.148 11.866-6.302-5.95v-5.23z"/><path fill="#111023" d="M157.116 13.928c1.611-.81 3.287-.905 4.982-.295 1.035.373.255 1.896-.768 1.527a4.203 4.203 0 00-3.283.2c-.972.489-1.914-.94-.93-1.432zm14.327 4.118c-.053-1.006.454-1.85 1.132-1.886.678-.036 1.27.751 1.323 1.757.052 1.007-.455 1.85-1.133 1.886-.677.036-1.27-.751-1.322-1.757zm3.371-4.527c-1.686-.637-3.363-.557-4.985.226-.99.479-.056 1.912.923 1.439a4.206 4.206 0 013.286-.143c1.018.384 1.805-1.134.776-1.522z"/><path fill="#f79244" d="M162.95 23.624c.545-2.584 1.881-5.214 2.783-7.698.188-.517.95-.127.764.384l-1.707 4.698c-.197.543-.676 1.44-.732 2.013-.185 1.95.706 1.798 1.716 2.268.5.233.114.995-.384.764-1.24-.578-2.816-.656-2.44-2.43z"/><path fill="#111023" d="M162.006 18.197c-.799-.644-1.706-1.067-2.73-1.198-.629-.081-.89.886-.252.968a4.719 4.719 0 011.462.434l-1.6.52c-.61.198-.355 1.165.258.966l2.635-.856c.321-.104.542-.582.227-.834z"/><path fill="#fff" d="M163.916 31.25c0-1.775.996-3.214 2.224-3.214 1.229 0 2.225 1.439 2.225 3.213 0 1.775-.996 3.214-2.225 3.214-1.228 0-2.224-1.439-2.224-3.214z"/><path fill="url(#x)" d="M472.65 330.598H71.39s-21.59 14.334 10.51 16.76c32.097 2.427 82.163 4.72 80.928 15.64-1.235 10.922-30.224 8.765-30.224 28.046 0 19.28 133.701 14.83 133.701 14.83s75.53.99 86.285-11.774c10.755-12.764-30.448-24.45-22.97-29.483 7.478-5.034 61.77 10.067 69.86-2.157 8.09-12.225-1.618-19.955 13.304-21.573 14.922-1.618 57.349 4.23 59.865-10.29z" opacity=".5"/><path fill="url(#y)" d="M411.975 355.987c0-4.766 13.583-8.629 30.337-8.629 16.755 0 30.337 3.863 30.337 8.63 0 4.765-13.582 8.628-30.337 8.628-16.754 0-30.337-3.863-30.337-8.629z"/><path fill="url(#z)" d="M92.784 363.448c0-3.624 11.872-6.562 26.517-6.562s26.517 2.938 26.517 6.562-11.872 6.562-26.517 6.562-26.517-2.938-26.517-6.562z"/><path fill="#e9fdff" d="M241.179 389.02c0-3.201 13.484-5.797 30.117-5.797 16.633 0 30.117 2.596 30.117 5.798s-13.484 5.798-30.117 5.798c-16.633 0-30.117-2.596-30.117-5.798z"/><path fill="url(#A)" d="M311.13 253.434c-6.18-14.13-17.77-22.93-34.77-26.4a69.77 69.77 0 00-5.43-.9c-15-1.9-27.37 1.68-37.11 10.74-10.9 10.12-18.94 27.89-24.14 53.31-3.18 15.57-4.07 29.04-2.66 40.41h37.16c-.47-6.64.84-17.5 3.92-32.56 3.33-16.29 6.63-27.29 9.9-33.01 1.9-3.32 4.05-5.51 6.45-6.57 1.73-.77 3.6-.95 5.59-.54 4.76.98 7.5 4.85 8.22 11.61.72 6.77-.54 18.07-3.77 33.9-2.43 11.87-4.87 20.92-7.31 27.17h40.74c1.89-5.85 3.55-12.29 4.98-19.32.95-4.65 1.7-9.11 2.24-13.38 2.33-18.2.99-33.02-4.01-44.46z"/><path fill="url(#B)" d="M300.72 251.314c-5.55-12.69-15.48-21.09-29.79-25.18-1.61-.46-3.27-.87-4.99-1.22-17.46-3.57-31.64-.29-42.54 9.84-10.89 10.13-18.94 27.9-24.13 53.31-1.06 5.17-1.86 10.12-2.41 14.83-1.21 10.35-1.2 19.59.04 27.7h37.11c-.05-.24-.08-.48-.11-.73-.78-6.47.48-17.79 3.78-33.95 3.33-16.29 6.63-27.29 9.91-33 3.27-5.72 7.28-8.09 12.04-7.11 1.95.4 3.56 1.28 4.82 2.65 1.85 1.98 2.97 4.96 3.4 8.95.72 6.77-.54 18.07-3.77 33.9-2.72 13.28-5.45 23.04-8.19 29.29h40.93c2.16-6.4 4.05-13.54 5.67-21.43 4.99-24.44 4.4-43.72-1.77-57.85z"/><path fill="#2a2a2a" d="M329.086 156.015l-.25.19-26.13 20.34-16.31 12.69-13.58 37.58-3.77-1.36 13.99-38.67 43.6-33.93z"/><path fill="url(#C)" d="M341.606 240.355c-2.97 3.53-7.02 5.95-10.99 8.3l-.27-.47c1.57-2.01 3.23-4.37 2.76-6.88-.33-1.71-1.59-3.07-2.88-4.22-2.19-1.93-4.63-3.56-6.72-5.59s-3.86-4.58-4.2-7.47c-.44-3.8 1.61-7.39 2.41-11.13.32-1.5.43-3.1-.17-4.51-1.34-3.18-5.39-3.91-8.6-5.19-2.87-1.16-5.57-3.31-6.37-6.3-1.16-4.34 1.93-8.78 1.51-13.25-.29-3.12-2.51-5.91-5.38-7.1l26.13-20.34c4.43 3.84 8.25 8.93 8.3 14.74.02 3.68-1.47 7.18-2.53 10.7-.42 1.42-.78 2.9-.52 4.35.41 2.22 2.18 3.9 3.81 5.47 3.37 3.23 6.76 7.16 6.7 11.83-.06 5.24-4.53 9.91-3.75 15.09.5 3.31 3.05 5.95 4.07 9.13 1.4 4.4-.34 9.31-3.31 12.84z"/></svg>