<svg width="54" height="57" fill="none" xmlns="http://www.w3.org/2000/svg"><path d="M12 0v6H6v12c0 6.63 5.37 12 12 12s12-5.37 12-12V6h-6V0h9c1.656 0 3 1.344 3 3v15c0 8.919-6.486 16.32-15 17.751V40.5C21 46.299 25.701 51 31.5 51c4.491 0 8.325-2.82 9.825-6.789A8.984 8.984 0 0136 36a9 9 0 019-9 9 9 0 012.472 17.655C45.63 51.756 39.177 57 31.5 57 22.386 57 15 49.614 15 40.5v-4.749C6.486 34.323 0 26.919 0 18V3c0-1.656 1.344-3 3-3h9zm33 33a3.001 3.001 0 000 6 3.001 3.001 0 000-6z" fill="#356BB7"/></svg>