<svg width="544" height="306" fill="none" xmlns="http://www.w3.org/2000/svg"><mask id="a" maskUnits="userSpaceOnUse" x="0" y="0" width="544" height="306"><path d="M544 0H0v306h544V0z" fill="#C4C4C4"/></mask><g filter="url(#filter0_d)" mask="url(#a)"><path fill="#fff" d="M260 141h25v25h-25z"/><path d="M272 173c-11.046 0-20-8.954-20-20s8.954-20 20-20 20 8.954 20 20-8.954 20-20 20zm-2.756-27.17a.805.805 0 00-1.13.253.803.803 0 00-.114.411v13.012a.803.803 0 00.423.704.805.805 0 00.821-.04l9.758-6.504a.796.796 0 00.262-1.044.796.796 0 00-.262-.288l-9.76-6.504h.002z" fill="#B8181C"/></g><defs><filter id="filter0_d" x="228" y="113" width="88" height="88" filterUnits="userSpaceOnUse" color-interpolation-filters="sRGB"><feFlood flood-opacity="0" result="BackgroundImageFix"/><feColorMatrix in="SourceAlpha" values="0 0 0 0 0 0 0 0 0 0 0 0 0 0 0 0 0 0 127 0"/><feOffset dy="4"/><feGaussianBlur stdDeviation="12"/><feColorMatrix values="0 0 0 0 0 0 0 0 0 0 0 0 0 0 0 0 0 0 0.56 0"/><feBlend in2="BackgroundImageFix" result="effect1_dropShadow"/><feBlend in="SourceGraphic" in2="effect1_dropShadow" result="shape"/></filter></defs></svg>