<svg width="56" height="56" fill="none" xmlns="http://www.w3.org/2000/svg"><path d="M25.366 26.682a10.555 10.555 0 003.952 3.952l.884-1.238a1 1 0 011.294-.296 11.422 11.422 0 004.583 1.364 1 1 0 01.921.997v4.462a1 1 0 01-.898.995A15.51 15.51 0 0134.5 37C25.94 37 19 30.06 19 21.5c0-.538.027-1.072.082-1.602a1 1 0 01.995-.898h4.462a1 1 0 01.997.921 11.422 11.422 0 001.364 4.583 1 1 0 01-.296 1.294l-1.238.884zm-2.522-.657l1.9-1.357A13.38 13.38 0 0123.647 21H21.01c-.006.166-.009.333-.009.5C21 28.956 27.044 35 34.5 35c.167 0 .334-.003.5-.01v-2.637a13.413 13.413 0 01-3.668-1.097l-1.357 1.9a12.445 12.445 0 01-1.588-.75l-.058-.033a12.557 12.557 0 01-4.702-4.702l-.033-.058a12.445 12.445 0 01-.75-1.588z" fill="#356BB7"/><rect x=".5" y=".5" width="55" height="55" rx="27.5" stroke="#C4C4C4"/></svg>