<svg width="60" height="60" fill="none" xmlns="http://www.w3.org/2000/svg"><path d="M30 60C13.431 60 0 46.569 0 30 0 13.431 13.431 0 30 0c16.569 0 30 13.431 30 30 0 16.569-13.431 30-30 30zm-6.87-6.999A53.7 53.7 0 0118.081 33H6.186A24.024 24.024 0 0023.13 53.001zM24.09 33A47.744 47.744 0 0030 53.256 47.715 47.715 0 0035.91 33H24.09zm29.724 0H41.919a53.7 53.7 0 01-5.049 20.001A24.024 24.024 0 0053.814 33zM6.186 27h11.895A53.7 53.7 0 0123.13 6.999 24.024 24.024 0 006.186 27zm17.907 0h11.814A47.715 47.715 0 0030 6.744 47.715 47.715 0 0024.09 27h.003zM36.87 6.999A53.7 53.7 0 0141.919 27h11.895A24.024 24.024 0 0036.87 6.999z" fill="#356BB7"/></svg>