<svg width="60" height="60" fill="none" xmlns="http://www.w3.org/2000/svg"><path d="M30 27a15 15 0 0115 15v18h-6V42a9 9 0 00-8.472-8.985L30 33a9 9 0 00-8.985 8.472L21 42v18h-6V42a15 15 0 0115-15zm-19.5 9c.837 0 1.65.099 2.43.282a17.842 17.842 0 00-.903 4.725L12 42v.258a4.475 4.475 0 00-1.068-.24L10.5 42a4.5 4.5 0 00-4.479 4.068L6 46.5V60H0V46.5A10.5 10.5 0 0110.5 36zm39 0A10.5 10.5 0 0160 46.5V60h-6V46.5a4.5 4.5 0 00-4.068-4.479L49.5 42c-.525 0-1.029.09-1.5.255V42c0-1.998-.324-3.918-.927-5.712.777-.189 1.59-.288 2.427-.288zm-39-18a7.5 7.5 0 110 15 7.5 7.5 0 010-15zm39 0a7.5 7.5 0 110 15 7.5 7.5 0 010-15zm-39 6a1.5 1.5 0 100 3 1.5 1.5 0 000-3zm39 0a1.5 1.5 0 100 3 1.5 1.5 0 000-3zM30 0a12 12 0 110 24 12 12 0 010-24zm0 6a6 6 0 100 12 6 6 0 000-12z" fill="#356BB7"/></svg>