<svg width="48" height="60" fill="none" xmlns="http://www.w3.org/2000/svg"><path d="M4 60h40a4 4 0 004-4V14.333a4 4 0 00-1.388-3.03L34.626.97A4 4 0 0032.014 0H4a4 4 0 00-4 4v52a4 4 0 004 4z" fill="#E6E6E6"/><path d="M12.068 26.962H7.546V37h1.372v-4.242h3.15c1.008 0 1.764-.294 2.254-.882.49-.574.728-1.26.728-2.044 0-.91-.266-1.61-.826-2.128-.546-.49-1.26-.742-2.156-.742zm.784 1.372c.546.266.826.77.826 1.512 0 .658-.196 1.106-.574 1.372-.378.252-.882.392-1.484.392H8.918v-3.486h2.702c.532 0 .938.07 1.232.21zm11.427-1.372h-4.06V37h4.046c1.722 0 2.94-.756 3.64-2.282.406-.868.602-1.82.602-2.898 0-1.372-.336-2.506-1.008-3.388-.77-.98-1.834-1.47-3.22-1.47zm-.266 8.876h-2.436v-7.714h2.422c1.092 0 1.89.35 2.38 1.036.504.686.742 1.652.742 2.898 0 .322-.028.672-.098 1.05-.112.644-.322 1.162-.588 1.554-.336.518-.77.854-1.288 1.036-.294.098-.686.14-1.134.14zm17.234-7.644v-1.232h-6.972V37h1.372v-4.564h4.928v-1.204h-4.928v-3.038h5.6z" fill="#851815"/><path d="M7.546 26.962v-.5h-.5v.5h.5zm0 10.038h-.5v.5h.5V37zm1.372 0v.5h.5V37h-.5zm0-4.242v-.5h-.5v.5h.5zm5.404-.882l-.38-.325-.004.005.384.32zm-.098-4.172l.34-.367-.006-.005-.334.372zm-1.372.63l.22-.45-.005-.001-.215.451zm.252 2.884l.278.416.01-.007-.288-.409zm-4.186.392h-.5v.5h.5v-.5zm0-3.486v-.5h-.5v.5h.5zm3.15-1.662H7.546v1h4.522v-1zm-5.022.5V37h1V26.962h-1zm.5 10.538h1.372v-1H7.546v1zm1.872-.5v-4.242h-1V37h1zm-.5-3.742h3.15v-1h-3.15v1zm3.15 0c1.105 0 2.025-.326 2.639-1.062l-.769-.64c-.366.44-.958.702-1.87.702v1zm2.635-1.057c.573-.672.847-1.476.847-2.369h-1c0 .674-.201 1.243-.608 1.72l.76.649zm.847-2.369c0-1.016-.302-1.862-.986-2.495l-.68.734c.436.403.666.957.666 1.761h1zm-.992-2.5c-.654-.587-1.494-.87-2.49-.87v1c.797 0 1.385.221 1.822.614l.668-.744zm-1.925 1.451a.867.867 0 01.399.369c.088.16.146.384.146.694h1c0-.432-.081-.832-.27-1.175a1.865 1.865 0 00-.837-.787l-.438.9zm.545 1.063c0 .559-.16.822-.361.963l.575.818c.556-.391.786-1.024.786-1.781h-1zm-.35.956c-.279.185-.68.308-1.208.308v1c.677 0 1.284-.157 1.762-.476l-.555-.832zm-1.208.308H8.918v1h2.702v-1zm-2.202.5v-3.486h-1v3.486h1zm-.5-2.986h2.702v-1H8.918v1zm2.702 0c.498 0 .82.067 1.018.161l.43-.902c-.39-.186-.882-.259-1.448-.259v1zm8.599-1.662v-.5h-.5v.5h.5zm0 10.038h-.5v.5h.5V37zm7.686-2.282l-.453-.212-.002.004.455.208zm-.406-6.286l.398-.303-.005-.006-.393.309zm-5.922 7.406h-.5v.5h.5v-.5zm0-7.714v-.5h-.5v.5h.5zm4.802 1.036l-.407.29.004.006.403-.296zm.644 3.948l-.492-.091v.005l.492.086zm-.588 1.554l-.414-.28-.006.008.42.272zm-1.288 1.036l.158.474.008-.002-.166-.472zm-.868-9.236h-4.06v1h4.06v-1zm-4.56.5V37h1V26.962h-1zm.5 10.538h4.046v-1h-4.046v1zm4.046 0c.935 0 1.766-.206 2.468-.645.703-.44 1.243-1.092 1.626-1.928l-.909-.417c-.316.689-.735 1.178-1.247 1.497-.512.32-1.151.493-1.938.493v1zm4.093-2.57c.44-.943.649-1.969.649-3.11h-1c0 1.015-.184 1.893-.555 2.686l.906.424zm.649-3.11c0-1.454-.357-2.703-1.11-3.691l-.796.606c.591.776.906 1.795.906 3.085h1zm-1.115-3.697c-.875-1.114-2.091-1.661-3.613-1.661v1c1.25 0 2.162.433 2.827 1.279l.786-.618zm-3.879 7.215h-2.436v1h2.436v-1zm-1.936.5v-7.714h-1v7.714h1zm-.5-7.214h2.422v-1h-2.422v1zm2.422 0c.981 0 1.603.309 1.973.827l.814-.582c-.61-.854-1.585-1.245-2.787-1.245v1zm1.977.832c.416.566.645 1.41.645 2.602h1c0-1.3-.247-2.388-.84-3.194l-.805.592zm.645 2.602c0 .293-.025.612-.09.959l.984.182c.075-.41.106-.79.106-1.141h-1zm-.09.964c-.102.586-.29 1.035-.51 1.36l.828.56c.312-.459.544-1.046.667-1.748l-.986-.172zm-.515 1.368c-.279.429-.625.692-1.035.836l.332.944c.626-.22 1.148-.629 1.541-1.236l-.838-.544zm-1.027.834c-.22.073-.55.114-.976.114v1c.47 0 .924-.043 1.292-.166l-.316-.948zm16.258-7.03v.5h.5v-.5h-.5zm0-1.232h.5v-.5h-.5v.5zm-6.972 0v-.5h-.5v.5h.5zm0 10.038h-.5v.5h.5V37zm1.372 0v.5h.5V37h-.5zm0-4.564v-.5h-.5v.5h.5zm4.928 0v.5h.5v-.5h-.5zm0-1.204h.5v-.5h-.5v.5zm-4.928 0h-.5v.5h.5v-.5zm0-3.038v-.5h-.5v.5h.5zm6.1 0v-1.232h-1v1.232h1zm-.5-1.732h-6.972v1h6.972v-1zm-7.472.5V37h1V26.962h-1zm.5 10.538h1.372v-1h-1.372v1zm1.872-.5v-4.564h-1V37h1zm-.5-4.064h4.928v-1h-4.928v1zm5.428-.5v-1.204h-1v1.204h1zm-.5-1.704h-4.928v1h4.928v-1zm-4.428.5v-3.038h-1v3.038h1zm-.5-2.538h5.6v-1h-5.6v1z" fill="#851815"/></svg>