<svg width="216" height="64" fill="none" xmlns="http://www.w3.org/2000/svg"><path d="M208 0H8a8 8 0 00-8 8v48a8 8 0 008 8h200a8 8 0 008-8V8a8 8 0 00-8-8z" fill="#000"/><path d="M208 1.28A6.72 6.72 0 01214.72 8v48a6.72 6.72 0 01-6.72 6.72H8A6.72 6.72 0 011.28 56V8A6.72 6.72 0 018 1.28h200zM208 0H8a8 8 0 00-8 8v48a8 8 0 008 8h200a8 8 0 008-8V8a8.001 8.001 0 00-8-8z" fill="#A6A6A6"/><path d="M51.38 30.9c-.043-4.913 4.024-7.303 4.21-7.415-2.304-3.358-5.874-3.817-7.129-3.854-2.998-.315-5.907 1.795-7.434 1.795-1.559 0-3.91-1.764-6.446-1.712-3.262.05-6.315 1.939-7.988 4.872-3.455 5.98-.878 14.77 2.431 19.604 1.656 2.367 3.59 5.01 6.123 4.918 2.477-.103 3.402-1.58 6.392-1.58 2.962 0 3.83 1.58 6.413 1.52 2.659-.043 4.333-2.378 5.93-4.767 1.914-2.714 2.682-5.386 2.713-5.523-.063-.022-5.164-1.968-5.214-7.857zm-4.878-14.449c1.333-1.666 2.244-3.933 1.991-6.233-1.928.085-4.34 1.334-5.729 2.963-1.229 1.437-2.326 3.79-2.043 6.004 2.167.161 4.39-1.093 5.781-2.734zm40.73 32.316H83.77l-1.896-5.96h-6.592l-1.807 5.96h-3.37l6.53-20.288h4.034l6.563 20.288zm-5.93-8.46l-1.715-5.297c-.182-.541-.522-1.816-1.023-3.822h-.061c-.2.863-.522 2.138-.964 3.822l-1.684 5.298h5.447zm22.725.966c0 2.488-.672 4.454-2.017 5.898-1.204 1.285-2.7 1.927-4.485 1.927-1.927 0-3.31-.692-4.154-2.076h-.06v7.706H90.06V38.954c0-1.564-.041-3.17-.12-4.816h2.858l.181 2.319h.061c1.084-1.747 2.73-2.62 4.937-2.62 1.725 0 3.166.682 4.318 2.047 1.156 1.366 1.732 3.161 1.732 5.389zm-3.311.119c0-1.424-.32-2.598-.963-3.522-.703-.963-1.647-1.445-2.83-1.445-.802 0-1.53.268-2.181.797-.653.534-1.08 1.23-1.28 2.093-.1.403-.15.732-.15.991v2.44c0 1.064.326 1.962.978 2.695.653.733 1.5 1.099 2.543 1.099 1.224 0 2.177-.473 2.859-1.415.683-.943 1.024-2.187 1.024-3.733zm20.137-.119c0 2.488-.672 4.454-2.018 5.898-1.203 1.285-2.698 1.927-4.484 1.927-1.927 0-3.311-.692-4.152-2.076h-.061v7.706h-3.25V38.954c0-1.564-.042-3.17-.121-4.816h2.859l.181 2.319h.061c1.082-1.747 2.727-2.62 4.936-2.62 1.724 0 3.165.682 4.321 2.047 1.151 1.366 1.728 3.161 1.728 5.389zm-3.311.119c0-1.424-.321-2.598-.965-3.522-.703-.963-1.643-1.445-2.828-1.445-.803 0-1.53.268-2.183.797-.652.534-1.078 1.23-1.277 2.093-.099.403-.151.732-.151.991v2.44c0 1.064.326 1.962.975 2.695.653.731 1.501 1.099 2.546 1.099 1.224 0 2.177-.473 2.859-1.415.683-.943 1.024-2.187 1.024-3.733zm22.123 1.686c0 1.726-.599 3.13-1.802 4.214-1.321 1.184-3.161 1.776-5.526 1.776-2.183 0-3.933-.421-5.258-1.264l.753-2.71c1.427.864 2.993 1.297 4.699 1.297 1.224 0 2.177-.278 2.861-.83.682-.552 1.022-1.292 1.022-2.216 0-.823-.281-1.517-.843-2.08-.56-.562-1.494-1.085-2.799-1.568-3.553-1.325-5.327-3.266-5.327-5.818 0-1.668.622-3.035 1.867-4.1 1.241-1.065 2.897-1.597 4.967-1.597 1.846 0 3.38.322 4.604.964l-.812 2.65c-1.144-.623-2.436-.934-3.883-.934-1.144 0-2.037.282-2.677.843-.541.502-.813 1.113-.813 1.837 0 .802.31 1.465.932 1.987.541.481 1.524 1.003 2.951 1.565 1.746.703 3.028 1.525 3.853 2.467.821.939 1.231 2.114 1.231 3.517zm10.747-6.501h-3.583v7.103c0 1.806.631 2.709 1.896 2.709.581 0 1.063-.05 1.444-.15l.09 2.467c-.64.24-1.483.36-2.527.36-1.284 0-2.287-.392-3.011-1.174-.721-.783-1.084-2.098-1.084-3.944v-7.374h-2.135v-2.439h2.135v-2.678l3.192-.964v3.642h3.583v2.442zm16.164 4.756c0 2.248-.644 4.094-1.927 5.538-1.346 1.486-3.133 2.227-5.36 2.227-2.147 0-3.856-.712-5.13-2.136-1.275-1.424-1.912-3.22-1.912-5.387 0-2.267.656-4.124 1.971-5.568 1.313-1.445 3.084-2.167 5.312-2.167 2.146 0 3.873.711 5.177 2.137 1.247 1.383 1.869 3.168 1.869 5.356zm-3.372.105c0-1.35-.289-2.507-.872-3.472-.682-1.167-1.656-1.75-2.918-1.75-1.307 0-2.299.584-2.981 1.75-.584.967-.872 2.142-.872 3.533 0 1.349.288 2.506.872 3.47.703 1.167 1.685 1.75 2.952 1.75 1.241 0 2.215-.595 2.918-1.781.599-.983.901-2.153.901-3.5zm13.936-4.441a5.636 5.636 0 00-1.024-.09c-1.144 0-2.028.431-2.65 1.296-.541.762-.812 1.725-.812 2.888v7.676h-3.249l.03-10.022c0-1.686-.041-3.221-.122-4.605h2.831l.119 2.799h.09c.343-.962.885-1.737 1.625-2.318.725-.522 1.507-.783 2.35-.783.3 0 .571.021.812.06v3.099zm14.536 3.763c0 .583-.038 1.074-.119 1.475h-9.75c.038 1.445.509 2.55 1.414 3.313.822.681 1.885 1.023 3.19 1.023 1.443 0 2.76-.23 3.945-.693l.509 2.257c-1.384.603-3.018.904-4.904.904-2.269 0-4.049-.668-5.345-2.002-1.293-1.334-1.941-3.125-1.941-5.372 0-2.206.602-4.043 1.808-5.508 1.263-1.564 2.969-2.346 5.115-2.346 2.108 0 3.705.782 4.788 2.346.859 1.242 1.29 2.779 1.29 4.604zm-3.099-.842c.021-.964-.191-1.796-.631-2.499-.563-.904-1.427-1.355-2.59-1.355-1.063 0-1.927.44-2.587 1.325-.542.702-.863 1.545-.962 2.527h6.77v.002zM81.757 23.522h-1.691V21H73.31v2.522h-1.719l-.056-3.945h.824c.409-.395.735-.968.98-1.72.244-.755.401-1.61.472-2.563l.267-4.55h6.467v8.833h1.303l-.091 3.945zm-7.383-3.945h4.396V12.18h-2.994l-.17 2.888c-.126 1.93-.537 3.433-1.232 4.509zm9.048-2.459c0-.746.148-1.418.444-2.014.295-.601.711-1.062 1.246-1.381.536-.324 1.15-.486 1.846-.486 1.029 0 1.862.33 2.5.993.644.662.992 1.54 1.043 2.635l.007.401c0 .752-.145 1.423-.436 2.015-.287.592-.7 1.05-1.24 1.373-.536.325-1.155.487-1.86.487-1.075 0-1.937-.357-2.585-1.071-.644-.719-.965-1.674-.965-2.867v-.085zm1.712.148c0 .785.162 1.4.486 1.846.324.441.774.662 1.352.662.578 0 1.026-.225 1.346-.676.324-.451.486-1.11.486-1.98 0-.77-.167-1.38-.5-1.831-.33-.451-.778-.677-1.346-.677-.559 0-1.003.224-1.331.67-.33.441-.493 1.103-.493 1.986zm10.674 2.508c.428 0 .782-.125 1.064-.373.282-.25.432-.557.451-.923h1.613a2.533 2.533 0 01-.444 1.331 2.921 2.921 0 01-1.127.972 3.36 3.36 0 01-1.535.36c-1.066 0-1.912-.346-2.536-1.036-.625-.69-.937-1.644-.937-2.86v-.176c0-1.16.31-2.087.93-2.782.62-.7 1.465-1.05 2.535-1.05.907 0 1.644.265 2.212.796.573.526.874 1.219.902 2.078h-1.613c-.019-.437-.17-.796-.45-1.078-.278-.282-.633-.422-1.065-.422-.554 0-.981.201-1.282.605-.3.4-.453 1.008-.457 1.825v.274c0 .827.147 1.445.443 1.853.3.404.733.606 1.296.606zm11.14-5.037h-2.472V21h-1.712v-6.263h-2.444v-1.36h6.628v1.36zm4.617 3.811l1.55-5.17h1.824l-3.029 8.777c-.465 1.282-1.254 1.923-2.367 1.923-.248 0-.523-.042-.824-.127v-1.324l.324.021c.432 0 .756-.08.972-.24.221-.154.395-.417.522-.788l.246-.655-2.677-7.587h1.846l1.613 5.17zM123.114 21h-1.712v-6.242h-2.973V21h-1.712v-7.622h6.397V21zm8.998 0H130.4v-3.08h-2.965V21h-1.712v-7.622h1.712v3.177h2.965v-3.177h1.712V21zm2.229-3.882c0-.746.148-1.418.444-2.014.296-.601.711-1.062 1.247-1.381.535-.324 1.15-.486 1.845-.486 1.029 0 1.862.33 2.501.993.643.662.991 1.54 1.042 2.635l.007.401c0 .752-.145 1.423-.436 2.015-.287.592-.7 1.05-1.24 1.373-.535.325-1.155.487-1.86.487-1.075 0-1.937-.357-2.585-1.071-.643-.719-.965-1.674-.965-2.867v-.085zm1.712.148c0 .785.162 1.4.486 1.846.324.441.775.662 1.352.662.578 0 1.026-.225 1.346-.676.324-.451.486-1.11.486-1.98 0-.77-.167-1.38-.5-1.831-.329-.451-.778-.677-1.346-.677-.559 0-1.003.224-1.331.67-.329.441-.493 1.103-.493 1.986zM148.041 21v-7.622h3.092c1.043 0 1.836.183 2.381.55.545.36.817.882.817 1.563 0 .352-.11.67-.331.951-.216.277-.538.49-.965.641.498.103.892.312 1.184.627.291.315.436.686.436 1.113 0 .71-.263 1.25-.789 1.62-.521.371-1.272.557-2.254.557h-3.571zm1.711-3.248v1.895h1.874c.878 0 1.317-.314 1.317-.944 0-.634-.446-.95-1.338-.95h-1.853zm0-1.226h1.409c.972 0 1.458-.286 1.458-.859 0-.601-.46-.91-1.38-.93h-1.487v1.79z" fill="#fff"/></svg>