<svg width="40" height="40" fill="none" xmlns="http://www.w3.org/2000/svg"><circle cx="20" cy="20" r="20" fill="#b8181c"/><path d="M21.727 30.558c-.105.004-.172.012-.24.012-1.437 0-2.87-.004-4.308.004-.202 0-.257-.054-.257-.256.005-3.346.005-6.697.005-10.043v-.29H14.61v-3.573h.227c.63 0 1.262-.004 1.892.004.16 0 .202-.046.202-.202-.009-.937-.009-1.879 0-2.816.004-.656.11-1.295.412-1.888.433-.836 1.118-1.378 1.984-1.715.706-.277 1.45-.378 2.198-.39 1.22-.018 2.439-.01 3.658-.013.113 0 .206-.005.206.155-.004 1.156-.004 2.312-.004 3.468 0 .013-.005.025-.022.08h-.23c-.757 0-1.514-.004-2.27 0-.438 0-.791.177-1.014.56a.808.808 0 00-.11.394c-.012.715 0 1.43-.008 2.144 0 .168.05.215.215.215 1.05-.009 2.102-.005 3.153-.005h.307c-.148 1.203-.29 2.38-.438 3.57h-3.24v10.585z" fill="#fff"/></svg>