<svg width="216" height="64" fill="none" xmlns="http://www.w3.org/2000/svg"><path d="M208 0H8a8 8 0 00-8 8v48a8 8 0 008 8h200a8 8 0 008-8V8a8 8 0 00-8-8z" fill="#000"/><path d="M208 1.28A6.72 6.72 0 01214.72 8v48a6.72 6.72 0 01-6.72 6.72H8A6.72 6.72 0 011.28 56V8A6.72 6.72 0 018 1.28h200zM208 0H8a8 8 0 00-8 8v48a8 8 0 008 8h200a8 8 0 008-8V8a8.001 8.001 0 00-8-8z" fill="#A6A6A6"/><path d="M109.024 34.8a6.8 6.8 0 106.832 6.8 6.708 6.708 0 00-4.204-6.318 6.709 6.709 0 00-2.628-.482zm0 10.928a4.125 4.125 0 01-4.368-4.742 4.127 4.127 0 018.208.614 3.936 3.936 0 01-3.84 4.128zM94.128 34.8a6.8 6.8 0 106.816 6.8 6.708 6.708 0 00-4.204-6.318 6.704 6.704 0 00-2.628-.482h.016zm0 10.928a4.128 4.128 0 113.824-4.128 3.936 3.936 0 01-3.84 4.128h.016zm-17.744-8.832v2.88h6.912a6.032 6.032 0 01-1.6 3.632 7.072 7.072 0 01-5.328 2.112 7.68 7.68 0 110-15.36 7.36 7.36 0 015.232 2.064l2.032-2.032a10.063 10.063 0 00-7.248-2.992 10.576 10.576 0 100 21.136 9.601 9.601 0 007.376-2.96 9.6 9.6 0 002.496-6.752 9.404 9.404 0 00-.16-1.808l-9.712.08zm72.496 2.24a6.397 6.397 0 00-5.824-4.336 6.4 6.4 0 00-6.4 6.8 6.661 6.661 0 004.142 6.308 6.654 6.654 0 002.61.492 6.769 6.769 0 005.664-3.008l-2.32-1.6a3.886 3.886 0 01-3.344 1.888 3.457 3.457 0 01-3.296-2.064l9.104-3.76-.336-.72zm-9.28 2.272a3.732 3.732 0 012.123-3.612 3.727 3.727 0 011.429-.356 2.644 2.644 0 012.528 1.44l-6.08 2.528zM132.208 48h2.992V28h-2.992v20zm-4.896-11.68h-.112a4.798 4.798 0 00-3.584-1.6 6.819 6.819 0 00-6.486 6.808 6.818 6.818 0 006.486 6.808 4.64 4.64 0 003.584-1.6h.096v.976c0 2.608-1.392 4-3.632 4a3.761 3.761 0 01-3.424-2.416l-2.608 1.088a6.484 6.484 0 006.032 4.016c3.504 0 6.4-2.064 6.4-7.088V35.2h-2.752v1.12zm-3.424 9.408a4.144 4.144 0 010-8.256 3.846 3.846 0 012.686 1.298 3.831 3.831 0 01.946 2.83 3.797 3.797 0 01-.941 2.844 3.803 3.803 0 01-2.707 1.284h.016zM162.896 28h-7.152v20h2.992v-7.584h4.176a6.221 6.221 0 006.67-6.208 6.228 6.228 0 00-1.983-4.556A6.223 6.223 0 00162.912 28h-.016zm0 9.6h-4.176v-6.816h4.24a3.434 3.434 0 012.427 5.859 3.434 3.434 0 01-2.427 1.005l-.064-.048zm18.448-2.88a5.598 5.598 0 00-5.328 3.056l2.656 1.104a2.835 2.835 0 012.72-1.472 2.879 2.879 0 013.2 2.576v.208a6.606 6.606 0 00-3.12-.768c-2.864 0-5.76 1.6-5.76 4.496a4.626 4.626 0 004.96 4.4 4.21 4.21 0 003.84-1.92h.096V48h2.88v-7.696c0-3.504-2.656-5.536-6.064-5.536l-.08-.048zm-.368 10.96c-.976 0-2.336-.496-2.336-1.696 0-1.6 1.696-2.128 3.2-2.128a5.31 5.31 0 012.72.672 3.615 3.615 0 01-3.504 3.2l-.08-.048zm17.008-10.48l-3.424 8.672h-.096l-3.552-8.672h-3.2l5.328 12.128-3.04 6.736h3.12l8.192-18.864h-3.328zM171.088 48h2.992V28h-2.992v20zM67.377 22.832h-1.184v-3.2H67.2a4.577 4.577 0 001.216-3.68V11.2h6.4v8.416h1.072v3.2h-1.184V20.8h-7.328v2.032zM69.6 16a6.4 6.4 0 01-.912 3.68h4.8v-7.296H69.6V16zm15.856 3.552a4.992 4.992 0 01-7.04 0 5.184 5.184 0 010-7.12 4.96 4.96 0 017.04 0 5.168 5.168 0 010 7.12zm-6.128-.8a3.696 3.696 0 005.216 0 4.096 4.096 0 000-5.504 3.696 3.696 0 00-5.216 0 4.096 4.096 0 000 5.504zm13.76 2.256A4.895 4.895 0 0188.097 16a4.898 4.898 0 014.992-5.008 4.434 4.434 0 013.52 1.6l-.864.832a3.2 3.2 0 00-2.672-1.216 3.633 3.633 0 00-2.656 1.056 4.112 4.112 0 000 5.552 3.632 3.632 0 002.656 1.056A3.791 3.791 0 0096 18.448l.864.864a4.67 4.67 0 01-1.6 1.248 5.039 5.039 0 01-2.176.448zm8.8-.208h-1.232v-8.416h-2.688V11.2h6.592v1.184h-2.672V20.8zm11.152-9.6l-3.632 8.096a2.418 2.418 0 01-2.208 1.712 2.463 2.463 0 01-.96-.208l.32-1.136c.194.113.415.174.64.176.235.018.47-.038.672-.16.192-.163.341-.372.432-.608l.352-.768-3.2-7.088h1.456l2.368 5.504 2.304-5.52h1.456zm1.392 9.6v-9.6h6.944v9.6h-1.232v-8.416h-4.48V20.8h-1.232zm9.136 0v-9.6h1.232v4.112h4.8V11.2h1.232v9.6H129.6v-4.336h-4.8V20.8h-1.232zm17.328-1.248a4.993 4.993 0 01-7.04 0 5.185 5.185 0 010-7.12 4.958 4.958 0 017.04 0 5.171 5.171 0 010 7.12zm-6.128-.8a3.694 3.694 0 005.216 0 4.098 4.098 0 000-5.504 3.697 3.697 0 00-5.216 0 4.095 4.095 0 000 5.504zm12.576 2.048v-9.6h3.472a2.817 2.817 0 011.952.736 2.423 2.423 0 01.832 1.872c.007.426-.116.845-.352 1.2a2.224 2.224 0 01-.944.784c.464.154.871.443 1.168.832.307.392.471.878.464 1.376a2.505 2.505 0 01-.864 1.952 2.96 2.96 0 01-2.048.784l-3.68.064zm1.232-5.488h2.24a1.44 1.44 0 001.12-.464 1.43 1.43 0 00.371-1.57A1.443 1.443 0 00152 12.8a1.375 1.375 0 00-1.072-.464h-2.288l-.064 2.976zm0 4.304h2.48a1.472 1.472 0 001.152-.496c.282-.293.442-.682.448-1.088a1.6 1.6 0 00-1.6-1.6h-2.432l-.048 3.184z" fill="#fff"/><path fill-rule="evenodd" clip-rule="evenodd" d="M81.937 11.126a4.8 4.8 0 00-3.405 1.417 5.024 5.024 0 000 6.897 4.832 4.832 0 006.81 0 5.008 5.008 0 000-6.897 4.8 4.8 0 00-3.405-1.417zm-1.968.074a5.12 5.12 0 015.601 1.12l.003.002a5.328 5.328 0 010 7.34l-.003.003a5.152 5.152 0 01-7.266 0l-.004-.003a5.344 5.344 0 010-7.34l.003-.003a5.119 5.119 0 011.666-1.12zm57.408-.074a4.795 4.795 0 00-3.405 1.417 5.02 5.02 0 00-.001 6.897 4.835 4.835 0 006.811 0 5.006 5.006 0 000-6.897 4.8 4.8 0 00-3.405-1.417zm-1.968.074a5.117 5.117 0 015.601 1.12l.003.002a5.328 5.328 0 010 7.34l-.003.003a5.154 5.154 0 01-7.266 0l-.004-.003a5.345 5.345 0 010-7.34l.003-.003a5.12 5.12 0 011.666-1.12zm-40.443.334a4.272 4.272 0 00-1.873-.382h-.008a4.737 4.737 0 00-4.828 4.844v.008a4.736 4.736 0 004.828 4.844l.004.16.003-.16a4.88 4.88 0 002.105-.433 4.512 4.512 0 001.45-1.094l-.636-.636a3.953 3.953 0 01-2.935 1.347 3.791 3.791 0 01-2.772-1.103l-.005-.005a4.272 4.272 0 010-5.768l.005-.006a3.792 3.792 0 012.767-1.102 3.36 3.36 0 012.687 1.141l.63-.607a4.272 4.272 0 00-1.422-1.049zm-1.877 9.634A5.055 5.055 0 0187.937 16a5.055 5.055 0 015.151-5.168 4.593 4.593 0 013.644 1.658l.095.114-1.099 1.058-.109-.14a3.04 3.04 0 00-2.538-1.154h-.013a3.472 3.472 0 00-2.536 1.007 3.952 3.952 0 000 5.33 3.472 3.472 0 002.537 1.007h.002a3.634 3.634 0 002.805-1.364l.111-.14 1.094 1.094-.093.112a4.833 4.833 0 01-1.655 1.29l-.002.002a5.201 5.201 0 01-2.242.462zm59.572-9.114a2.655 2.655 0 00-1.841-.694h-3.315v9.277l3.517-.061h.005a2.8 2.8 0 001.937-.742l.004-.003a2.35 2.35 0 00.809-1.828v-.005a2.016 2.016 0 00-.43-1.275l-.001-.002a2.276 2.276 0 00-1.092-.777l-.395-.131.381-.168a2.06 2.06 0 00.876-.726c.218-.328.332-.715.325-1.108v-.006a2.267 2.267 0 00-.777-1.748l-.003-.003zm.214-.238a2.976 2.976 0 00-2.06-.776h-3.63v9.923l3.837-.067h.003a3.119 3.119 0 002.154-.825 2.673 2.673 0 00.918-2.072v.003l-.16-.002.16-.004V18a2.34 2.34 0 00-.498-1.473 2.592 2.592 0 00-.918-.753c.276-.174.515-.403.7-.675l.001-.001a2.26 2.26 0 00.379-1.289v.003l-.16-.003.16-.003v.003a2.574 2.574 0 00-.886-1.992zm-84.618-.776h6.72v8.416h1.072v3.52h-1.504V20.96h-7.008v2.032h-1.504v-3.52h1.098a4.416 4.416 0 001.127-3.501l-.001-.01V11.04zm.32.32v4.583a4.737 4.737 0 01-1.26 3.799l-.047.05h-.917v2.88h.864V20.64h7.648v2.016h.864v-2.88h-1.072V11.36h-6.08zm29.232-.32h6.912v1.504h-2.672v8.416h-1.552v-8.416h-2.688V11.04zm.32.32v.864h2.688v8.416h.912v-8.416h2.672v-.864h-6.272zm13.349-.32h1.81l-3.729 8.312a2.576 2.576 0 01-2.351 1.816h-.009c-.353-.004-.7-.08-1.023-.222l-.127-.056.414-1.468.178.104c.171.099.364.152.561.154h.011a.973.973 0 00.566-.13c.168-.145.297-.329.376-.535l.004-.01.322-.702-3.272-7.247h1.809l2.26 5.254 2.2-5.27zm.213.32l-2.408 5.77-2.476-5.754h-1.102l3.127 6.928-.38.83a1.66 1.66 0 01-.476.668l-.01.008-.011.007a1.294 1.294 0 01-.761.183 1.453 1.453 0 01-.531-.108l-.229.813c.244.09.503.14.764.143a2.253 2.253 0 002.058-1.598l.003-.01 3.535-7.88h-1.103zm2.582-.32h7.264v9.92h-1.552v-8.416h-4.16v8.416h-1.552v-9.92zm.32.32v9.28h.912v-8.416h4.8v8.416h.912v-9.28h-6.624zm8.816-.32h1.552v4.112h4.48V11.04h1.552v9.92h-1.552v-4.336h-4.48v4.336h-1.552v-9.92zm.32.32v9.28h.912v-4.336h5.12v4.336h.912v-9.28h-.912v4.112h-5.12V11.36h-.912zm-44.513 1.775a3.856 3.856 0 015.442 0l.005.005a4.256 4.256 0 010 5.72l-.005.006a3.857 3.857 0 01-5.442 0l.113-.114-.119.107a4.256 4.256 0 010-5.719l.006-.005zm.229 5.506a3.536 3.536 0 004.984 0 3.936 3.936 0 000-5.282 3.536 3.536 0 00-4.984 0 3.936 3.936 0 000 5.282zm55.211-5.506a3.855 3.855 0 015.442 0l.005.005a4.253 4.253 0 010 5.72l-.005.006a3.857 3.857 0 01-5.442 0l.113-.114-.119.107a4.258 4.258 0 010-5.719l.006-.005zm.229 5.506a3.534 3.534 0 004.984 0 3.937 3.937 0 000-5.283 3.535 3.535 0 00-4.984 0 3.933 3.933 0 000 5.283zm16.041-6.465a1.537 1.537 0 011.192.515 1.593 1.593 0 01.445 1.151 1.576 1.576 0 01-.513 1.12 1.603 1.603 0 01-1.237.51h-2.4l.071-3.296h2.442zm.527.42a1.216 1.216 0 00-.52-.1h-2.136l-.057 2.656h2.083a1.281 1.281 0 00.996-.412l.005-.006.005-.005a1.274 1.274 0 00.415-.896 1.277 1.277 0 00-.358-.921l-.005-.006a1.212 1.212 0 00-.428-.31zm-82.012-.372h4.208v7.616h-5.244l.147-.243a6.24 6.24 0 00.889-3.588v-3.785zm.32.32v3.451a6.56 6.56 0 01-.796 3.525h4.364v-6.976H69.76zm78.706 3.728h2.59a1.759 1.759 0 011.76 1.76v.002a1.763 1.763 0 01-.491 1.195 1.632 1.632 0 01-1.272.547h-2.64l.053-3.504zm.315.32l-.043 2.864h2.323a1.315 1.315 0 001.027-.442l.004-.005c.254-.263.398-.613.404-.978a1.442 1.442 0 00-1.44-1.44h-2.275z" fill="#fff"/><path d="M16.704 12.064a3.2 3.2 0 00-.736 2.24v35.392a3.2 3.2 0 00.736 2.24l.112.112L36.64 32.24v-.464L16.816 11.952l-.112.112z" fill="url(#paint0_linear)"/><path d="M43.2 38.848l-6.56-6.608v-.464l6.56-6.624.144.08 7.856 4.464c2.24 1.264 2.24 3.344 0 4.624l-7.824 4.448-.176.08z" fill="url(#paint1_linear)"/><path d="M43.392 38.752L36.64 32 16.704 51.936a2.608 2.608 0 003.328.096l23.376-13.28" fill="url(#paint2_linear)"/><path d="M43.392 25.248l-23.376-13.28a2.609 2.609 0 00-3.328.096L36.64 32l6.752-6.752z" fill="url(#paint3_linear)"/><path opacity=".2" d="M43.2 38.608l-23.184 13.2a2.672 2.672 0 01-3.2 0l-.112.112.112.112a2.656 2.656 0 003.2 0l23.376-13.28-.192-.144z" fill="#000"/><path opacity=".12" d="M16.704 51.712a3.2 3.2 0 01-.736-2.24v.24a3.2 3.2 0 00.736 2.24l.112-.112-.112-.128zM51.2 34.08l-8 4.528.144.144 7.856-4.448A2.8 2.8 0 0052.8 32a2.975 2.975 0 01-1.6 2.08z" fill="#000"/><path opacity=".25" d="M20.016 12.191L51.2 29.92A2.977 2.977 0 0152.8 32a2.8 2.8 0 00-1.6-2.304L20.016 11.967c-2.24-1.264-4.064-.208-4.064 2.352v.24c.048-2.576 1.84-3.632 4.064-2.368z" fill="#fff"/><defs><linearGradient id="paint0_linear" x1="34.88" y1="13.936" x2="8.032" y2="40.784" gradientUnits="userSpaceOnUse"><stop stop-color="#00A0FF"/><stop offset=".01" stop-color="#00A1FF"/><stop offset=".26" stop-color="#00BEFF"/><stop offset=".51" stop-color="#00D2FF"/><stop offset=".76" stop-color="#00DFFF"/><stop offset="1" stop-color="#00E3FF"/></linearGradient><linearGradient id="paint1_linear" x1="54.128" y1="32" x2="15.424" y2="32" gradientUnits="userSpaceOnUse"><stop stop-color="#FFE000"/><stop offset=".41" stop-color="#FFBD00"/><stop offset=".78" stop-color="orange"/><stop offset="1" stop-color="#FF9C00"/></linearGradient><linearGradient id="paint2_linear" x1="39.728" y1="35.68" x2="3.312" y2="72.08" gradientUnits="userSpaceOnUse"><stop stop-color="#FF3A44"/><stop offset="1" stop-color="#C31162"/></linearGradient><linearGradient id="paint3_linear" x1="11.68" y1=".288" x2="27.936" y2="16.544" gradientUnits="userSpaceOnUse"><stop stop-color="#32A071"/><stop offset=".07" stop-color="#2DA771"/><stop offset=".48" stop-color="#15CF74"/><stop offset=".8" stop-color="#06E775"/><stop offset="1" stop-color="#00F076"/></linearGradient></defs></svg>