<svg xmlns="http://www.w3.org/2000/svg" width="44" height="62"><g data-name="Сгруппировать 303"><g data-name="Сгруппировать 65"><path data-name="Контур 10" d="M27 44H17A17.018 17.018 0 000 61v1h44v-1a17.018 17.018 0 00-17-17zM2.033 60A15.021 15.021 0 0117 46h10a15.021 15.021 0 0114.967 14z" fill="#939393"/><path data-name="Контур 11" d="M6.214 30H6.9L6 39.91a1 1 0 00.753 1.061C6.926 41.012 11 42 22 42s15.074-.988 15.242-1.03A1 1 0 0038 39.91l-.4-4.41A7.007 7.007 0 0042 29v-5.271a3.417 3.417 0 00-1.066-2.446 4.155 4.155 0 00-.934-.66V18a18 18 0 00-36 0v2.62a4.172 4.172 0 00-.934.664A3.415 3.415 0 002 23.729v2.6A3.976 3.976 0 006.214 30zM8.87 19.764A13 13 0 0121.084 6.022Q21.465 6 21.848 6h.3a12.862 12.862 0 017.526 2.4A22.49 22.49 0 018.886 20.029zM25 32h-6a1 1 0 00-1 1v4a1 1 0 001 1h6a1 1 0 001-1v-1h4.913a12.952 12.952 0 01-7.248 3.732.981.981 0 00-.168.041 5.05 5.05 0 01-2.991 0 1.028 1.028 0 00-.172-.042 13.068 13.068 0 01-11-12.085L9 22.03c.232 0 .472.021.7.021a24.145 24.145 0 0014.408-4.494A17.161 17.161 0 0035 21.962l-.335 5.685A12.907 12.907 0 0132.542 34H26v-1a1 1 0 00-1-1zm-1 2v2h-4v-2zm11.36-1l.087.952A4.074 4.074 0 0135 34h-.132c.177-.325.339-.659.492-1zm-.23-13.239l-.012.2a15.183 15.183 0 01-9.41-3.66 25.859 25.859 0 005.52-6.593c.127.124.261.238.384.368a12.88 12.88 0 013.518 9.688zM8.64 33a15.174 15.174 0 006.14 6.824 62.162 62.162 0 01-6.7-.64zm27.282 6.184a62.162 62.162 0 01-6.7.64A15.18 15.18 0 0033.571 36H35c.212 0 .422-.013.629-.032zm1.479-5.83L37.1 30h.691a4.628 4.628 0 002.167-.539 4.975 4.975 0 01-2.558 3.9zM40 26.327C40 27.234 38.986 28 37.786 28h-1.148c.006-.079.02-.157.024-.236L37 22.073l.722-.017a2.417 2.417 0 011.817.657A1.43 1.43 0 0140 23.729v2.6zM6 18a16 16 0 0132 0v2.08c-.11 0-.216-.026-.327-.023l-.558.013.011-.19A15 15 0 0023.032 4.026a15.207 15.207 0 00-.88-.026h-.3a15 15 0 00-15 15q0 .443.026.885l.011.19-.559-.013c-.111 0-.217.017-.326.021zm-2 5.729a1.431 1.431 0 01.464-1.016 2.547 2.547 0 011.816-.657l.72.017.334 5.69c0 .08.018.157.024.236H6.214C5.014 28 4 27.234 4 26.327z" fill="#939393"/><path data-name="Контур 12" d="M40.9 21.283a4.155 4.155 0 00-.934-.66V18a18 18 0 10-36 0v2.62a4.172 4.172 0 00-.934.664 3.415 3.415 0 00-1.066 2.445v2.6A3.976 3.976 0 006.181 30s3.223-.5 3.368-.568a12.99 12.99 0 01-.249-1.786s-.448-6.773-.448-7.617l-2 .042-.559-.013c-.111 0-.217.017-.326.021V18a16 16 0 1132 0v2.08c-.11 0-.216-.026-.327-.023l-.558.013-2-.109c-.068 0-.453 7.686-.453 7.686-.025.421-.092.836-.158 1.251A20.223 20.223 0 0037.2 30h.561a4.628 4.628 0 002.167-.539 4.973 4.973 0 01-2.558 3.9 16.647 16.647 0 01-4.861.639h-6.542v-1a1 1 0 00-1-1h-6a1 1 0 00-1 1v4a1 1 0 001 1h6a1 1 0 001-1v-1s8.762.108 11.6-.5c2.8-.6 4.4-3.636 4.4-6.5v-5.271a3.417 3.417 0 00-1.067-2.446zm-34.654.773l.72.017.334 5.69c0 .08.018.157.024.236H6.181c-1.2 0-2.214-.765-2.214-1.672v-2.6a1.431 1.431 0 01.464-1.016 2.547 2.547 0 011.816-.655zM23.967 36h-4v-2h4zm16-9.673c0 .907-1.014 1.673-2.214 1.673H36.6c.006-.079.02-.157.024-.236l.338-5.691.722-.017a2.417 2.417 0 011.817.657 1.43 1.43 0 01.461 1.016z" fill="#b8181c"/></g></g></svg>