<svg width="56" height="65" fill="none" xmlns="http://www.w3.org/2000/svg"><path d="M24 39v6A18 18 0 006 63H0a24 24 0 0124-24zm0-3c-9.945 0-18-8.055-18-18S14.055 0 24 0s18 8.055 18 18-8.055 18-18 18zm0-6c6.63 0 12-5.37 12-12S30.63 6 24 6s-12 5.37-12 12 5.37 12 12 12zm7.785 23.436a10.53 10.53 0 010-4.869l-2.976-1.719 3-5.196 2.976 1.719A10.488 10.488 0 0139 40.935V37.5h6v3.435a10.477 10.477 0 014.215 2.436l2.976-1.719 3 5.196-2.976 1.719c.38 1.6.38 3.266 0 4.866l2.976 1.719-3 5.196-2.976-1.719A10.488 10.488 0 0145 61.065V64.5h-6v-3.435a10.488 10.488 0 01-4.215-2.436l-2.976 1.719-3-5.196 2.976-1.716zM42 55.5a4.5 4.5 0 100-9 4.5 4.5 0 000 9z" fill="#356BB7"/></svg>