<svg width="48" height="48" fill="none" xmlns="http://www.w3.org/2000/svg"><path d="M6 9.99A3.99 3.99 0 019.99 6h28.02A3.99 3.99 0 0142 9.99v28.02A3.99 3.99 0 0138.01 42H9.99A3.99 3.99 0 016 38.01V9.99zm4 .01v28h28V10H10zm5.944 26.36a19.968 19.968 0 01-3.502-1.956A13.987 13.987 0 0124.204 28c4.8 0 9.034 2.414 11.556 6.094a19.99 19.99 0 01-3.448 2.05A9.985 9.985 0 0024.204 32a9.992 9.992 0 00-8.26 4.36zM24 26a7.001 7.001 0 01-4.95-11.95A6.998 6.998 0 0131 19a7 7 0 01-7 7zm0-4a3 3 0 100-6 3 3 0 000 6z" fill="#356BB7"/></svg>