<svg width="48" height="48" fill="none" xmlns="http://www.w3.org/2000/svg"><path d="M24 28v4a12 12 0 00-12 12H8a16 16 0 0116-16zm0-2c-6.63 0-12-5.37-12-12S17.37 2 24 2s12 5.37 12 12-5.37 12-12 12zm0-4c4.42 0 8-3.58 8-8s-3.58-8-8-8-8 3.58-8 8 3.58 8 8 8zm17.656 20.142L36 48l-5.656-5.858c-3.126-3.236-3.126-8.48 0-11.716a7.808 7.808 0 0111.312 0c3.126 3.236 3.126 8.48 0 11.716zm-2.876-2.78c1.626-1.684 1.626-4.472 0-6.156a3.808 3.808 0 00-5.56 0c-1.626 1.684-1.626 4.472 0 6.158L36 42.24l2.78-2.88v.002z" fill="#356BB7"/></svg>