<svg xmlns="http://www.w3.org/2000/svg" width="60" height="60.225"><g data-name="Сгруппировать 301"><g data-name="Сгруппировать 200"><path data-name="Прямоугольник 210" fill="#fff" d="M-.001.081h60v60h-60z"/><path data-name="Контур 73" d="M34.903 42.219l-3.164 5.039a88.484 88.484 0 0016.506 12.967l2.953-5.223c-4.993-2.824-12.162-8.703-16.295-12.783z" fill="#356bb7"/><path data-name="Контур 74" d="M45.742 10.011C43.908 3.649 38.135 0 29.905 0a24.5 24.5 0 00-4.323.37 55.414 55.414 0 00-3.212 7.678C23.677 6.943 25.931 6 29.905 6c5.6 0 8.986 1.909 10.071 5.673 1.674 5.805-1.712 14.933-9.8 24.519-5.769-7.6-9.464-15.475-9.916-21.246v-.009a25.792 25.792 0 011.003-13.222 11.937 11.937 0 00-6.548 7.878c-2.108 8.009 2.84 20.114 11.376 31.059A101.673 101.673 0 017.896 55.075l3.193 5.078a109.847 109.847 0 0012.99-9.555 122.2 122.2 0 0013.508-14.313c7.023-9.528 10.249-19.012 8.155-26.274z" fill="#356bb7"/></g></g></svg>