<svg xmlns="http://www.w3.org/2000/svg" width="60" height="56.542"><g data-name="Сгруппировать 201" fill="#356bb7"><path data-name="Контур 75" d="M39.335 39.602a138.396 138.396 0 01-9.306 8.513C19.044 38.837 6 24.797 6 17.146 6 11 11.429 6 18.1 6a12.672 12.672 0 018.074 2.854L30 12.018l3.825-3.164A12.671 12.671 0 0141.9 6C48.572 6 54 11 54 17.146c0 4.005-3.361 9.577-8.1 15.288l.288 1.255h6.4C56.842 28.102 60 22.247 60 17.146 60 7.676 51.9 0 41.9 0A18.615 18.615 0 0030 4.231 18.615 18.615 0 0018.1 0C8.1 0 0 7.676 0 17.146c0 15.291 30 38.675 30 38.675s4.99-3.815 10.9-9.4z"/><path data-name="Контур 76" d="M45.271 56.537L38.16 25.53l-3.222 13.977H24.559v-4h7.2l6.411-27.83 7.63 33.277 1.59-5.265h9.484v4H50.36z"/></g></svg>