<svg width="40" height="40" fill="none" xmlns="http://www.w3.org/2000/svg"><path d="M27.157 12.76h-3.1v3.196h3.1v-3.197zm-1.904 7.321c0 2.84-2.309 5.15-5.146 5.15a5.154 5.154 0 01-5.147-5.15c0-.768.173-1.496.476-2.151h-3.4v8.84c0 .802.652 1.455 1.454 1.455h13.234c.802 0 1.454-.653 1.454-1.456V17.93h-3.401a5.13 5.13 0 01.476 2.151z" fill="#b8181c"/><path d="M20.106 23.144a3.065 3.065 0 003.061-3.063c0-.838-.339-1.598-.885-2.151H17.93a3.054 3.054 0 00-.885 2.151 3.065 3.065 0 003.061 3.063z" fill="#b8181c"/><path d="M20 0C8.954 0 0 8.954 0 20c0 11.044 8.954 20 20 20 11.045 0 20-8.955 20-20C40 8.954 31.045 0 20 0zm10.104 26.615a3.526 3.526 0 01-3.522 3.522H13.417a3.526 3.526 0 01-3.522-3.522V13.39a3.526 3.526 0 013.522-3.522h13.165a3.526 3.526 0 013.522 3.521v13.226z" fill="#b8181c"/></svg>