<svg xmlns="http://www.w3.org/2000/svg" height="1000" width="1000"><path fill="#fff" d="M499.2 242.7c-141.6 0-256.8 115.2-256.8 256.8 0 141.6 115.2 256.7 256.8 256.7 141.6 0 256.7-115.2 256.7-256.7.1-141.6-115.1-256.8-256.7-256.8zm0 415.6c-87.6 0-158.8-71.2-158.8-158.8 0-87.6 71.2-158.8 158.8-158.8 87.6 0 158.8 71.2 158.8 158.8 0 87.6-71.2 158.8-158.8 158.8zM709.1 5H289.3C132.4 5 4.7 132.7 4.7 289.6v419.8C4.7 866.3 132.4 994 289.3 994h419.8c156.9 0 284.6-127.7 284.6-284.6V289.6C993.7 132.7 866.1 5 709.1 5zm186.7 704.4C895.8 812.3 812 896 709.1 896H289.3c-102.9 0-186.6-83.7-186.6-186.6V289.6c0-102.9 83.7-186.6 186.6-186.6h419.8c102.9 0 186.6 83.7 186.6 186.6v419.8zM759.5 168.5c-37 0-67.2 30.1-67.2 67.2 0 37 30.1 67.2 67.2 67.2 37 0 67.2-30.1 67.2-67.2s-30.2-67.2-67.2-67.2z"/></svg>