<svg xmlns="http://www.w3.org/2000/svg" height="1000" width="1000"><path fill="#fff" d="M500 514c124.5 0 225.8-101.3 225.8-225.7 0-124.6-101.3-225.8-225.8-225.8S274.2 163.8 274.2 288.3C274.2 412.7 375.5 514 500 514zm0-319.3c51.6 0 93.5 41.9 93.5 93.5 0 51.5-42 93.5-93.5 93.5s-93.5-41.9-93.5-93.5c0-51.5 42-93.5 93.5-93.5zm91.4 503.5c46-10.5 90.3-28.6 131.1-54.3 30.9-19.5 40.2-60.3 20.8-91.2-19.5-31-60.3-40.3-91.3-20.8-92.5 58.2-211.6 58.1-304 0-31-19.5-71.8-10.2-91.2 20.8-19.5 30.9-10.2 71.8 20.7 91.2 40.8 25.6 85.1 43.8 131.1 54.3L282.4 824.5c-25.8 25.8-25.8 67.7 0 93.6 12.9 12.9 29.8 19.4 46.8 19.4 16.9 0 33.9-6.5 46.8-19.4l124-124 124.1 124.1c25.8 25.8 67.7 25.8 93.5 0 25.9-25.8 25.9-67.8 0-93.5L591.4 698.2z"/></svg>