<svg xmlns="http://www.w3.org/2000/svg" width="36" height="36"><path fill="#193c6d" d="M20.636 23.268l1.768-2.476a2 2 0 012.588-.592 22.844 22.844 0 009.166 2.728A2 2 0 0136 24.922v8.924a2 2 0 01-1.796 1.99A31.02 31.02 0 0131 36C13.88 36 0 22.12 0 5c0-1.076.054-2.144.164-3.204A2 2 0 012.154 0h8.924a2 2 0 011.994 1.842 22.844 22.844 0 002.728 9.166 2 2 0 01-.592 2.588l-2.476 1.768a21.112 21.112 0 007.904 7.904zm-9.148-11.932A26.821 26.821 0 019.294 4H4.02a27.71 27.71 0 00-.018 1C4 19.912 16.088 32 31 32c.334 0 .668-.006 1-.02v-5.274a26.82 26.82 0 01-7.336-2.194l-2.714 3.8a24.884 24.884 0 01-3.176-1.5l-.116-.066a25.113 25.113 0 01-9.404-9.404l-.066-.116a24.881 24.881 0 01-1.5-3.176z"/></svg>