<svg xmlns="http://www.w3.org/2000/svg" width="82" height="82"><defs><filter id="a" width="108" height="112" x="-13" y="-17" filterUnits="userSpaceOnUse"><feOffset dy="4" in="SourceGraphic" result="FeOffset1023Out"/><feGaussianBlur in="FeOffset1023Out" result="FeGaussianBlur1024Out" stdDeviation="9.6 9.6"/></filter><mask id="b" width="2" height="2" x="-1" y="-1"><path fill="#fff" d="M21 17h40v40H21z"/><path d="M38.242 29.83l9.76 6.504a.8.8 0 010 1.332l-9.758 6.504A.8.8 0 0137 43.506V30.494a.8.8 0 011.244-.664zM61 37c0-11.046-8.954-20-20-20s-20 8.954-20 20 8.954 20 20 20 20-8.954 20-20z"/></mask></defs><g filter="url(#a)"><path fill="none" d="M38.242 29.83l9.76 6.504a.8.8 0 010 1.332l-9.758 6.504A.8.8 0 0137 43.506V30.494a.8.8 0 011.244-.664zM61 37c0-11.046-8.954-20-20-20s-20 8.954-20 20 8.954 20 20 20 20-8.954 20-20z" mask="url(&quot;#b&quot;)"/><path fill-opacity=".56" d="M38.242 29.83l9.76 6.504a.8.8 0 010 1.332l-9.758 6.504A.8.8 0 0137 43.506V30.494a.8.8 0 011.244-.664zM61 37c0-11.046-8.954-20-20-20s-20 8.954-20 20 8.954 20 20 20 20-8.954 20-20z"/></g><path fill="#fff" d="M38.242 29.83l9.76 6.504a.8.8 0 010 1.332l-9.758 6.504A.8.8 0 0137 43.506V30.494a.8.8 0 011.244-.664zM61 37c0-11.046-8.954-20-20-20s-20 8.954-20 20 8.954 20 20 20 20-8.954 20-20z"/></svg>