<svg width="544" height="306" fill="none" xmlns="http://www.w3.org/2000/svg"><g filter="url(#filter0_d)"><path d="M272 173c-11.046 0-20-8.954-20-20s8.954-20 20-20 20 8.954 20 20-8.954 20-20 20zm-2.756-27.17a.805.805 0 00-1.13.253.803.803 0 00-.114.411v13.012a.803.803 0 00.423.704.805.805 0 00.821-.04l9.758-6.504a.796.796 0 00.262-1.044.796.796 0 00-.262-.288l-9.76-6.504h.002z" fill="#fff"/></g><defs><filter id="filter0_d" x="224" y="109" width="96" height="96" filterUnits="userSpaceOnUse" color-interpolation-filters="sRGB"><feFlood flood-opacity="0" result="BackgroundImageFix"/><feColorMatrix in="SourceAlpha" values="0 0 0 0 0 0 0 0 0 0 0 0 0 0 0 0 0 0 127 0"/><feOffset dy="4"/><feGaussianBlur stdDeviation="12"/><feColorMatrix values="0 0 0 0 0 0 0 0 0 0 0 0 0 0 0 0 0 0 0.56 0"/><feBlend in2="BackgroundImageFix" result="effect1_dropShadow"/><feBlend in="SourceGraphic" in2="effect1_dropShadow" result="shape"/></filter></defs></svg>