<svg width="60" height="60" fill="none" xmlns="http://www.w3.org/2000/svg"><path d="M39.335 41.602a138.392 138.392 0 01-9.306 8.513C19.044 40.838 6 26.797 6 19.145 6 13 11.429 8 18.101 8c2.982 0 5.85 1.014 8.074 2.854L30 14.018l3.825-3.164C36.049 9.014 38.917 8 41.899 8 48.571 8 54 13 54 19.146c0 4.005-3.361 9.577-8.102 15.288l.288 1.255h6.396C56.842 30.102 60 24.247 60 19.146 60 9.676 51.896 2 41.899 2 37.342 2 33.182 3.598 30 6.23 26.818 3.599 22.658 2 18.101 2 8.104 2 0 9.676 0 19.146 0 34.436 30 57.82 30 57.82s4.99-3.815 10.898-9.4l-1.563-6.818z" fill="#356BB7"/><path d="M45.27 58.542L38.16 27.53l-3.22 13.978H24.56v-4h7.197l6.415-27.83 7.63 33.276 1.59-5.265h9.484v4H50.36l-5.09 16.853z" fill="#356BB7"/></svg>