<svg width="60" height="60" fill="none" xmlns="http://www.w3.org/2000/svg"><path d="M30.42 4a3.838 3.838 0 013.834 3.834 3.837 3.837 0 01-3.833 3.834 3.837 3.837 0 01-3.833-3.834A3.838 3.838 0 0130.42 4zm0 11.668c4.32 0 7.834-3.514 7.834-7.834S34.74 0 30.42 0s-7.832 3.515-7.832 7.834c0 4.32 3.513 7.834 7.833 7.834h-.001zM17.119 47.156c.443-11.277 4.466-22.391 9.596-26.33h7.412c5.13 3.939 9.152 15.053 9.596 26.33H17.119zm14.134 8.735h-2.08l-1.493-4.627h5.256l-1.683 4.627zM47.84 49.21c0-13.986-5.019-27.507-11.932-32.15l-.513-.343h-9.95l-.513.344C18.019 21.704 13 35.224 13 49.21v2.054h10.392L26.212 60h7.89l3.178-8.736h10.56V49.21z" fill="#356BB7"/><path d="M30.42 35.556c-1.283-.793-2.44-.798-3.241.074-.846.918-.84 2.531.225 3.701.82.903 1.854 1.615 2.816 2.382a.63.63 0 00.2.095.626.626 0 00.202-.095c.962-.767 1.995-1.479 2.816-2.382 1.064-1.17 1.07-2.783.225-3.7-.802-.873-1.958-.868-3.242-.075h-.001z" fill="#356BB7"/></svg>