<svg width="60" height="60" fill="none" xmlns="http://www.w3.org/2000/svg"><path d="M35.008 42.06l-3.164 5.02C36.42 51.599 42.99 56.98 48.35 60l2.953-5.204c-4.993-2.814-12.162-8.67-16.295-12.736zM45.846 9.973C44.012 3.636 38.239 0 30.009 0c-1.607 0-3.03.14-4.323.369-.907 1.8-2.3 4.77-3.212 7.649 1.307-1.1 3.561-2.04 7.535-2.04 5.597 0 8.986 1.901 10.071 5.651 1.674 5.784-1.712 14.878-9.804 24.428-5.769-7.568-9.464-15.417-9.916-21.167l-.005-.01c-.924-5.675-.144-10.05 1.012-13.171-4.267 2.04-5.92 5.475-6.548 7.848-2.108 7.98 2.844 20.039 11.376 30.943C21.326 45.412 15.245 50.328 8 54.87l3.193 5.058c4.558-2.851 8.9-6.033 12.99-9.519 1.343-1.207 8.544-7.783 13.508-14.26 7.023-9.492 10.25-18.94 8.155-26.175v-.001z" fill="#356BB7"/></svg>