<svg width="20" height="20" fill="none" xmlns="http://www.w3.org/2000/svg"><path d="M4 5.918v9.771l3.799-1.653 4.5 2.286L16 14.709v-9.77l.977-.426a.37.37 0 01.478.17c.03.055.045.117.045.18v10.851L12.25 18l-4.5-2.286-4.727 2.058a.37.37 0 01-.478-.17.385.385 0 01-.045-.18V6.57L4 5.918zm9.182 3.886L10 13.036 6.818 9.804a4.595 4.595 0 01-1.232-2.34 4.64 4.64 0 01.257-2.642c.34-.835.917-1.55 1.657-2.052A4.45 4.45 0 0110 2c.89 0 1.76.268 2.5.77a4.557 4.557 0 011.657 2.052 4.64 4.64 0 01.257 2.641 4.595 4.595 0 01-1.232 2.34zM10 10.88l2.121-2.155c.42-.426.705-.97.821-1.56a3.092 3.092 0 00-.17-1.762 3.037 3.037 0 00-1.105-1.368 2.967 2.967 0 00-3.334 0 3.038 3.038 0 00-1.105 1.368 3.093 3.093 0 00-.17 1.761c.116.592.401 1.135.821 1.56L10 10.882z" fill="#000"/></svg>