<svg width="58" height="58" fill="none" xmlns="http://www.w3.org/2000/svg"><path d="M52.334 5.666c7.03 7.03 7.03 18.426 0 25.455l-21.21 21.213c-7.032 7.03-18.429 7.03-25.458 0-7.029-7.029-7.029-18.426 0-25.455l21.21-21.213c7.032-7.029 18.43-7.029 25.458 0zm-16.968 33.94l-16.97-16.972-8.488 8.49c-4.686 4.683-4.686 12.282 0 16.968s12.285 4.686 16.971 0l8.487-8.49v.003zM48.092 9.907c-4.686-4.686-12.285-4.686-16.97 0l-8.482 8.484 16.971 16.971 8.484-8.484c4.686-4.686 4.686-12.285 0-16.97h-.003z" fill="#356BB7"/></svg>