<svg xmlns="http://www.w3.org/2000/svg" width="225.459" height="59.056"><g fill="#b70d18"><path data-name="Контур 5" d="M28.231.001h-7.839L6.157 14.416V.001H.026v35.637h6.132V19.115l14.9 16.523h8.14l-18-19.061z"/><path data-name="Контур 6" d="M53.044 21.424h-9.68l4.838-13.686zM45.231 0L31.74 35.638h6.586l3.214-8.813h13.324l3.214 8.813h6.586L51.173.001z"/><path data-name="Контур 7" d="M68.339 35.638h6.133V5.403h15.582v30.235h6.132V.001H68.339z"/><path data-name="Контур 8" d="M108.721 25.609V.001h-6.133v35.637h5.774l16.966-25.786v25.786h6.132V.001h-5.772z"/><path data-name="Контур 9" d="M163.987.001H135.7v5.4h11.1v30.237h6.132V5.404h11.055z"/><path data-name="Контур 10" d="M180.297 21.424h-9.682l4.84-13.688zM172.486 0l-13.493 35.638h6.589l3.213-8.813h13.323l3.212 8.813h6.589L178.43 0z"/><path data-name="Контур 11" d="M202.343.001v15.437c0 6.74-1.05 14.774-6.052 14.774a5.868 5.868 0 01-1.063-.1l-.921-.172v5.589l.652.107a13.97 13.97 0 002.25.193c7.475 0 11.264-6.531 11.264-19.413v-11h10.666v30.222h6.133V.001z"/><path data-name="Контур 12" d="M5.066 52.322l-3.552-7.875H-.001v11.828h1.662v-7.549l2.709 6h1.371l2.644-5.971v7.516h1.664V44.448H8.53z"/><path data-name="Контур 13" d="M11.878 56.275h7.491v-1.572H13.54v-3.6h4.965V49.53H13.54v-3.508h5.829v-1.574h-7.491z"/><path data-name="Контур 14" d="M25.067 49.621v-3.6h3.376v8.681h-4.378a11.712 11.712 0 001-5.082m5.04-5.173h-6.657v4.43a10.852 10.852 0 01-1.235 5.825h-1.186v4.352h1.662v-2.78h7.064v2.78h1.662v-4.352h-1.31z"/><path data-name="Контур 15" d="M34.773 53.03v-8.581h-1.664v11.827h1.478l5.4-8.609v8.609h1.661V44.448h-1.475z"/><path data-name="Контур 16" d="M51.776 44.448h-1.662v10.255h-4.889V44.448H43.56v11.827h7.863v2.78h1.661v-4.352h-1.31z"/><path data-name="Контур 17" d="M56.269 53.03v-8.581h-1.662v11.827h1.477l5.4-8.609v8.609h1.661V44.448h-1.476z"/><path data-name="Контур 18" d="M71.526 49.529h-4.889v-5.082h-1.664v11.827h1.664v-5.173h4.889v5.173h1.662V44.447h-1.662z"/><path data-name="Контур 19" d="M79.528 45.927a2.466 2.466 0 012.479 2.141l.07.329h1.682l-.091-.492a4.079 4.079 0 00-4.141-3.55 4.132 4.132 0 00-2.959 1.171c-1.168 1.172-1.216 2.262-1.216 4.834s.048 3.663 1.216 4.834a4.132 4.132 0 002.959 1.173 4.079 4.079 0 004.141-3.552l.091-.492h-1.652l-.071.329a2.486 2.486 0 01-2.509 2.143 2.432 2.432 0 01-1.787-.728c-.67-.67-.727-1.457-.727-3.706s.056-3.033.727-3.707a2.437 2.437 0 011.787-.727"/><path data-name="Контур 20" d="M94.298 44.448h-2.283l-4.527 4.675v-4.675h-1.666v11.827h1.662V51.15l4.879 5.125h2.34l-6.033-6.158z"/><path data-name="Контур 21" d="M98.54 45.927a2.439 2.439 0 011.787.727c.67.672.725 1.456.725 3.707s-.055 3.036-.724 3.705a2.559 2.559 0 01-3.578 0c-.667-.67-.724-1.455-.724-3.706s.056-3.035.724-3.705a2.444 2.444 0 011.79-.728m0-1.572a4.14 4.14 0 00-2.961 1.171c-1.122 1.125-1.216 2.1-1.216 4.834s.094 3.711 1.216 4.834a4.322 4.322 0 005.92 0c1.124-1.125 1.218-2.1 1.218-4.834s-.094-3.709-1.218-4.834a4.131 4.131 0 00-2.959-1.171"/><path data-name="Контур 22" d="M104.106 56.275h7.491v-1.572h-5.828v-3.6h4.965V49.53h-4.965v-3.508h5.828v-1.574h-7.491z"/><path data-name="Контур 23" d="M123.971 45.927a2.466 2.466 0 012.477 2.141l.07.329h1.682l-.091-.492a4.073 4.073 0 00-4.138-3.55 4.137 4.137 0 00-2.961 1.171c-1.122 1.125-1.216 2.1-1.216 4.834s.094 3.709 1.216 4.834a4.136 4.136 0 002.961 1.173 4.073 4.073 0 004.138-3.553l.091-.491h-1.652l-.069.329a2.483 2.483 0 01-2.508 2.143 2.449 2.449 0 01-1.79-.728c-.667-.67-.724-1.455-.724-3.706s.057-3.035.724-3.707a2.448 2.448 0 011.79-.727"/><path data-name="Контур 24" d="M129.118 46.022h3.269v10.254h1.661V46.022h3.285v-1.574h-8.215z"/><path data-name="Контур 25" d="M140.64 46.022h2.681c.986 0 2.16.347 2.16 2.008s-1.174 2.01-2.16 2.01h-2.681zm2.776-1.574h-4.443v11.827h1.665v-4.664h2.776a3.585 3.585 0 100-7.164"/><path data-name="Контур 26" d="M171.636 45.927a2.441 2.441 0 011.787.727c.669.672.725 1.456.725 3.707s-.056 3.036-.724 3.705a2.559 2.559 0 01-3.578 0c-.667-.67-.726-1.455-.726-3.706s.058-3.035.726-3.705a2.443 2.443 0 011.789-.728m0-1.572a4.138 4.138 0 00-2.961 1.171c-1.124 1.125-1.218 2.1-1.218 4.834s.094 3.709 1.218 4.834a4.322 4.322 0 005.92 0c1.122-1.125 1.216-2.1 1.216-4.834s-.094-3.709-1.216-4.834a4.137 4.137 0 00-2.959-1.171"/><path data-name="Контур 27" d="M179.125 54.702v-3.677h2.818c1.294 0 2.066.688 2.066 1.839s-.772 1.839-2.066 1.839zm2.7-5.25h-2.7v-3.431h2.7c.754 0 2.02.224 2.02 1.717s-1.265 1.714-2.02 1.714m2.479.744c.078-.058.156-.12.24-.2a3.07 3.07 0 00.961-2.3 3.285 3.285 0 00-3.588-3.256h-4.454v11.827h4.58c2.244 0 3.638-1.3 3.638-3.381a3.175 3.175 0 00-1-2.412 2.885 2.885 0 00-.369-.287"/><path data-name="Контур 28" d="M189.916 52.032l1.708-4.815 1.709 4.815zm1.048-7.584l-4.345 11.827h1.782l.956-2.671h4.533l.957 2.671h1.782l-4.345-11.827z"/><path data-name="Контур 29" d="M204.493 49.529h-4.889v-5.082h-1.662v11.827h1.662v-5.173h4.889v5.173h1.664V44.447h-1.664z"/><path data-name="Контур 30" d="M209.527 53.03v-8.581h-1.662v11.827h1.482l5.4-8.609v8.609h1.662V44.448h-1.477z"/><path data-name="Контур 31" d="M225.459 46.022v-1.574h-7.487v11.827h7.491v-1.572h-5.826v-3.6h4.963v-1.572h-4.963v-3.507z"/><path data-name="Контур 32" d="M151.326 47.108l-1.872 5.279h3.693zm3.14 9.205l-.836-2.389h-4.7l-.836 2.389h-1.9l4.359-11.9h1.454l4.342 11.9z"/><path data-name="Контур 33" d="M164.699 56.312l-2.59-4.561-2.589 4.561h-2.055l3.657-6.1-3.424-5.8h2.072l2.338 4.261 2.356-4.261h2.069l-3.44 5.8 3.691 6.1z"/></g></svg>