<svg xmlns="http://www.w3.org/2000/svg" height="1000" width="1000"><path fill="#fff" d="M937.5 228.5c-32.2 14.3-66.8 23.9-103.1 28.3 37.1-22.2 65.5-57.4 78.9-99.3-34.7 20.6-73.2 35.5-114 43.6-32.7-34.9-79.4-56.7-131-56.7-99.2 0-179.6 80.3-179.6 179.5 0 14.1 1.6 27.8 4.6 40.9-149.2-7.5-281.5-78.9-370-187.6-15.4 26.5-24.3 57.4-24.3 90.3 0 62.3 31.7 117.2 79.8 149.4-29.4-.9-57.1-9-81.3-22.5v2.3c0 87 61.9 159.5 144 176-15 4.1-30.9 6.3-47.3 6.3-11.6 0-22.8-1.1-33.7-3.2 22.8 71.3 89.1 123.2 167.6 124.7-61.4 48.1-138.7 76.8-222.9 76.8-14.5 0-28.7-.8-42.8-2.5 79.5 50.9 173.8 80.6 275.2 80.6 330.2 0 510.8-273.5 510.8-510.7 0-7.8-.2-15.5-.5-23.2 35.1-25.4 65.6-57 89.6-93z"/></svg>