<svg xmlns="http://www.w3.org/2000/svg" height="1000" width="1000"><path fill="#fff" d="M490.7 747.4H543s15.8-1.7 23.9-10.4c7.4-8 7.2-23 7.2-23s-1-70.2 31.5-80.5c32.1-10.2 73.3 67.8 117 97.8 33 22.7 58.2 17.7 58.2 17.7l116.9-1.6s61.1-3.8 32.1-51.8c-2.4-3.9-16.9-35.6-86.9-100.5-73.3-68-63.5-57 24.8-174.6 53.7-71.6 75.2-115.4 68.5-134.1-6.4-17.8-45.9-13.1-45.9-13.1l-131.6.8s-9.8-1.3-17 3c-7.1 4.2-11.6 14.1-11.6 14.1s-20.8 55.4-48.6 102.6c-58.6 99.5-82 104.7-91.6 98.6-22.3-14.4-16.7-57.8-16.7-88.7 0-96.4 14.6-136.6-28.5-147-14.3-3.5-24.8-5.7-61.4-6.1-46.9-.5-86.7.1-109.2 11.2-15 7.3-26.5 23.7-19.5 24.6 8.7 1.2 28.4 5.3 38.8 19.5 13.5 18.3 13 59.5 13 59.5s7.7 113.5-18.1 127.6c-17.7 9.7-42.1-10.1-94.3-100.3-26.8-46.2-47-97.3-47-97.3s-3.9-9.5-10.8-14.7c-8.4-6.2-20.2-8.2-20.2-8.2l-125 .8s-18.8.5-25.7 8.7c-6.1 7.3-.5 22.3-.5 22.3s97.9 229 208.7 344.4c101.8 105.6 217.2 98.7 217.2 98.7"/></svg>