<svg width="1000" height="1000" fill="none" xmlns="http://www.w3.org/2000/svg"><path d="M301.876 770.25l30.166 17.625A331.371 331.371 0 00499.667 833a333.334 333.334 0 10-333.333-333.333c0 59.833 15.708 117.208 45.167 167.666l17.583 30.167-27.208 100.042 100-27.292zM83.167 916.333l56.334-207a414.741 414.741 0 01-56.5-209.666C83 269.542 269.542 83 499.667 83s416.667 186.542 416.667 416.667c0 230.125-186.542 416.666-416.667 416.666a414.752 414.752 0 01-209.583-56.458L83.167 916.333zm266.125-612.166c5.584-.417 11.209-.417 16.792-.167 2.25.167 4.5.417 6.75.667 6.625.75 13.917 4.791 16.375 10.375a3534.197 3534.197 0 0136.167 85c2.583 6.333 1.041 14.458-3.875 22.375a182.712 182.712 0 01-10.959 15.5c-4.708 6.041-14.833 17.125-14.833 17.125s-4.125 4.916-2.542 11.041c.584 2.334 2.5 5.709 4.25 8.542l2.459 3.958c10.666 17.792 25 35.834 42.5 52.834 5 4.833 9.875 9.791 15.125 14.416 19.5 17.209 41.583 31.25 65.416 41.667l.209.083c3.541 1.542 5.333 2.375 10.5 4.584 2.583 1.083 5.25 2.041 7.958 2.75a14.59 14.59 0 0015.292-5.417c30.166-36.542 32.916-38.917 33.166-38.917v.084a20.076 20.076 0 0115.75-5.292c2.5.167 5.042.625 7.375 1.667 22.125 10.125 58.334 25.916 58.334 25.916l24.25 10.875c4.083 1.959 7.791 6.584 7.916 11.042.167 2.792.417 7.292-.541 15.542-1.334 10.791-4.584 23.75-7.834 30.541a48.135 48.135 0 01-8.75 12.584 99.11 99.11 0 01-13.75 12 154.593 154.593 0 01-5.208 3.75 209.429 209.429 0 01-15.958 9.166 82.917 82.917 0 01-34.709 9.584c-7.708.416-15.416 1-23.166.583-.334 0-23.667-3.625-23.667-3.625a393.659 393.659 0 01-160-85.25c-9.417-8.292-18.125-17.208-27.042-26.083-37.083-36.875-65.083-76.667-82.083-114.25a144.588 144.588 0 01-13.792-58.917 113.707 113.707 0 0123.5-70c3.042-3.917 5.917-8 10.875-12.708 5.292-5 8.625-7.667 12.25-9.5a40.032 40.032 0 0115.459-4.167l.041.042z" fill="#fff"/></svg>